<?xml version="1.0" encoding="UTF-8" standalone="no"?>
<svg
   xmlns:dc="http://purl.org/dc/elements/1.1/"
   xmlns:cc="http://creativecommons.org/ns#"
   xmlns:rdf="http://www.w3.org/1999/02/22-rdf-syntax-ns#"
   xmlns:svg="http://www.w3.org/2000/svg"
   xmlns="http://www.w3.org/2000/svg"
   xmlns:sodipodi="http://sodipodi.sourceforge.net/DTD/sodipodi-0.dtd"
   xmlns:inkscape="http://www.inkscape.org/namespaces/inkscape"
   width="36"
   height="36"
   viewBox="0 0 9.5249998 9.5250003"
   version="1.1"
   id="svg8"
   inkscape:version="1.0.2 (e86c870879, 2021-01-15)"
   sodipodi:docname="NewRedKnob_36.svg">
  <defs
     id="defs2" />
  <sodipodi:namedview
     id="base"
     pagecolor="#ffffff"
     bordercolor="#666666"
     borderopacity="1.0"
     inkscape:pageopacity="0.0"
     inkscape:pageshadow="2"
     inkscape:zoom="15.916667"
     inkscape:cx="9.4279911"
     inkscape:cy="13.838642"
     inkscape:document-units="px"
     inkscape:current-layer="layer1"
     showgrid="true"
     inkscape:pagecheckerboard="true"
     units="px"
     inkscape:snap-tangential="true"
     inkscape:snap-perpendicular="true"
     objecttolerance="1"
     guidetolerance="1"
     inkscape:snap-path-mask="true"
     inkscape:snap-path-clip="true"
     gridtolerance="1"
     inkscape:window-width="1826"
     inkscape:window-height="1114"
     inkscape:window-x="2616"
     inkscape:window-y="17"
     inkscape:window-maximized="0"
     fit-margin-top="0"
     fit-margin-left="0"
     fit-margin-right="0"
     fit-margin-bottom="0"
     inkscape:document-rotation="0">
    <inkscape:grid
       type="xygrid"
       id="grid819"
       snapvisiblegridlinesonly="true"
       originx="-1.0583336"
       originy="-1.05833" />
  </sodipodi:namedview>
  <metadata
     id="metadata5">
    <rdf:RDF>
      <cc:Work
         rdf:about="">
        <dc:format>image/svg+xml</dc:format>
        <dc:type
           rdf:resource="http://purl.org/dc/dcmitype/StillImage" />
        <dc:title></dc:title>
      </cc:Work>
    </rdf:RDF>
  </metadata>
  <g
     inkscape:label="Layer 1"
     inkscape:groupmode="layer"
     id="layer1"
     transform="translate(-1.0583337,-288.53332)">
    <path
       id="path2785"
       style="fill:#333333;fill-opacity:0.75142;stroke:none;stroke-width:0.0680358;stroke-miterlimit:4;stroke-dasharray:none;stroke-opacity:1"
       d="m 5.8208338,288.53332 a 4.7625001,4.7625023 0 0 0 -4.7625001,4.76251 4.7625001,4.7625023 0 0 0 4.7625001,4.7625 4.7625001,4.7625023 0 0 0 4.7625002,-4.7625 4.7625001,4.7625023 0 0 0 -4.7625002,-4.76251 z m 0,1.02054 a 3.7419643,3.741966 0 0 1 3.7419643,3.74197 3.7419643,3.741966 0 0 1 -3.7419643,3.74196 3.7419643,3.741966 0 0 1 -3.7419644,-3.74196 3.7419643,3.741966 0 0 1 3.7419644,-3.74197 z" />
    <path
       id="path4520"
       style="fill:#181818;fill-opacity:1;stroke:none;stroke-width:0.347547;stroke-opacity:1"
       d="m 5.8208338,288.7979 c -0.5371067,0 -0.2760268,0.35676 -0.8028131,0.46155 -0.5267864,0.10475 -0.4221482,-0.32447 -0.91837,-0.11887 -0.4962218,0.20554 -0.1190305,0.43481 -0.5656184,0.73321 -0.4465877,0.2984 -0.5142504,-0.13854 -0.894042,0.24126 -0.3797918,0.37979 0.057151,0.44745 -0.2412494,0.89404 -0.2984005,0.44657 -0.5276674,0.0694 -0.7332091,0.56562 -0.2055418,0.49621 0.2237196,0.39157 0.1189353,0.91836 -0.1047843,0.52679 -0.4615501,0.26571 -0.4615501,0.80282 0,0.53711 0.3567658,0.27603 0.4615501,0.80281 0.1047842,0.52678 -0.3244771,0.42215 -0.1189353,0.91838 0.2055418,0.49621 0.4348086,0.119 0.7332091,0.56561 0.2984004,0.44659 -0.1385423,0.51425 0.2412494,0.89404 0.3797918,0.37979 0.4474542,-0.0571 0.894042,0.24124 0.4465877,0.29841 0.069397,0.52767 0.5656184,0.73321 0.4962218,0.20554 0.3915833,-0.22372 0.91837,-0.119 0.526786,0.10475 0.2657064,0.46155 0.8028131,0.46155 0.5371066,0 0.2760267,-0.35676 0.802813,-0.46155 0.5267864,-0.10474 0.4221482,0.32448 0.9183697,0.119 0.496222,-0.20554 0.1190309,-0.4348 0.5656187,-0.73321 0.4465877,-0.29839 0.5142503,0.13855 0.8940419,-0.24124 0.379792,-0.37979 -0.057151,-0.44745 0.2412495,-0.89404 0.2984006,-0.44659 0.5276673,-0.0694 0.7332096,-0.56561 0.2055408,-0.49623 -0.22372,-0.3916 -0.1189358,-0.91838 0.1047842,-0.52678 0.4615496,-0.2657 0.4615496,-0.80281 0,-0.53711 -0.3567654,-0.27603 -0.4615496,-0.80282 -0.1047842,-0.52679 0.3244766,-0.42215 0.1189358,-0.91836 -0.2055423,-0.49623 -0.434809,-0.119 -0.7332096,-0.56562 -0.2984004,-0.44659 0.1385421,-0.51425 -0.2412495,-0.89404 -0.3797916,-0.3798 -0.4474542,0.0571 -0.8940419,-0.24126 -0.4465878,-0.2984 -0.069397,-0.52767 -0.5656187,-0.73321 -0.4962215,-0.20555 -0.391583,0.22372 -0.9183697,0.11887 -0.5267859,-0.10475 -0.2657064,-0.46155 -0.802813,-0.46155 z m 0,1.03798 a 3.4599358,3.4599342 0 0 1 3.4599359,3.45995 3.4599358,3.4599342 0 0 1 -3.4599359,3.45992 3.4599358,3.4599342 0 0 1 -3.459936,-3.45992 3.4599358,3.4599342 0 0 1 3.459936,-3.45995 z" />
    <circle
       style="fill:#990f0f;fill-opacity:0.44999999;stroke:#000000;stroke-width:0.05291667;stroke-opacity:1;stroke-miterlimit:4;stroke-dasharray:none"
       id="path827"
       cx="5.8208337"
       cy="293.29581"
       r="3.4395833" />
    <circle
       style="fill:#990f0f;fill-opacity:1;stroke:none;stroke-width:0.0396875;stroke-miterlimit:4;stroke-dasharray:none;stroke-opacity:1"
       id="path827-1"
       cx="5.8208337"
       cy="293.29581"
       inkscape:transform-center-x="-9.8502202"
       inkscape:transform-center-y="3.5921089"
       r="3.175" />
    <rect
       style="fill:#fcfcfc;fill-opacity:1;stroke:#000000;stroke-width:0.0592871;stroke-miterlimit:4;stroke-dasharray:none;stroke-opacity:1"
       id="rect829"
       width="0.52279681"
       height="3.6977963"
       x="5.5594363"
       y="288.80106"
       rx="0.1306992"
       ry="0.18488987" />
  </g>
</svg>
