<?xml version="1.0" encoding="UTF-8" standalone="no"?>
<svg
   xmlns:dc="http://purl.org/dc/elements/1.1/"
   xmlns:cc="http://creativecommons.org/ns#"
   xmlns:rdf="http://www.w3.org/1999/02/22-rdf-syntax-ns#"
   xmlns:svg="http://www.w3.org/2000/svg"
   xmlns="http://www.w3.org/2000/svg"
   xmlns:sodipodi="http://sodipodi.sourceforge.net/DTD/sodipodi-0.dtd"
   xmlns:inkscape="http://www.inkscape.org/namespaces/inkscape"
   width="28"
   height="28"
   viewBox="0 0 7.4083332 7.4083336"
   version="1.1"
   id="svg8"
   inkscape:version="1.0.2 (e86c870879, 2021-01-15)"
   sodipodi:docname="NewRedKnob_28.svg">
  <defs
     id="defs2" />
  <sodipodi:namedview
     id="base"
     pagecolor="#ffffff"
     bordercolor="#666666"
     borderopacity="1.0"
     inkscape:pageopacity="0.0"
     inkscape:pageshadow="2"
     inkscape:zoom="22.627417"
     inkscape:cx="6.4523494"
     inkscape:cy="12.639534"
     inkscape:document-units="px"
     inkscape:current-layer="layer1"
     showgrid="true"
     inkscape:pagecheckerboard="true"
     units="px"
     inkscape:snap-tangential="true"
     inkscape:snap-perpendicular="true"
     objecttolerance="1"
     guidetolerance="1"
     inkscape:snap-path-mask="true"
     inkscape:snap-path-clip="true"
     gridtolerance="1"
     inkscape:window-width="1403"
     inkscape:window-height="1114"
     inkscape:window-x="2645"
     inkscape:window-y="29"
     inkscape:window-maximized="0"
     fit-margin-top="0"
     fit-margin-left="0"
     fit-margin-right="0"
     fit-margin-bottom="0"
     inkscape:document-rotation="0">
    <inkscape:grid
       type="xygrid"
       id="grid819"
       snapvisiblegridlinesonly="true"
       originx="-1.0583336"
       originy="-1.05833" />
  </sodipodi:namedview>
  <metadata
     id="metadata5">
    <rdf:RDF>
      <cc:Work
         rdf:about="">
        <dc:format>image/svg+xml</dc:format>
        <dc:type
           rdf:resource="http://purl.org/dc/dcmitype/StillImage" />
        <dc:title></dc:title>
      </cc:Work>
    </rdf:RDF>
  </metadata>
  <g
     inkscape:label="Layer 1"
     inkscape:groupmode="layer"
     id="layer1"
     transform="translate(-1.0583337,-288.53332)">
    <path
       id="path2785"
       style="fill:#333333;fill-opacity:0.7514196;stroke:#000000;stroke-width:0.05291667;stroke-opacity:1;stroke-miterlimit:4;stroke-dasharray:none"
       d="m 4.7625005,288.53332 a 3.7041668,3.7041668 0 0 0 -3.7041668,3.70417 3.7041668,3.7041668 0 0 0 3.7041668,3.70416 3.7041668,3.7041668 0 0 0 3.7041667,-3.70416 3.7041668,3.7041668 0 0 0 -3.7041667,-3.70417 z m 0,0.79375 a 2.9104167,2.9104167 0 0 1 2.9104167,2.91042 2.9104167,2.9104167 0 0 1 -2.9104167,2.91041 2.9104167,2.9104167 0 0 1 -2.9104168,-2.91041 2.9104167,2.9104167 0 0 1 2.9104168,-2.91042 z" />
    <path
       id="path4520"
       style="fill:#181818;fill-opacity:1;stroke:none;stroke-width:1.00449;stroke-opacity:1"
       d="M 14 1 C 12.44764 1 13.20222 2.031134 11.679688 2.3339844 C 10.157156 2.6368347 10.459584 1.396172 9.0253906 1.9902344 C 7.5911968 2.5842969 8.6813654 3.2469299 7.390625 4.109375 C 6.0998851 4.9718198 5.9043247 3.7089565 4.8066406 4.8066406 C 3.7089562 5.9043251 4.9718202 6.0998847 4.109375 7.390625 C 3.2469301 8.6813649 2.5842967 7.5911973 1.9902344 9.0253906 C 1.3961719 10.459584 2.6368349 10.157155 2.3339844 11.679688 C 2.031134 13.202219 0.99999998 12.44764 1 14 C 1 15.55236 2.031134 14.79778 2.3339844 16.320312 C 2.6368347 17.842844 1.396172 17.540416 1.9902344 18.974609 C 2.5842969 20.408803 3.2469299 19.318635 4.109375 20.609375 C 4.9718198 21.900115 3.7089565 22.095675 4.8066406 23.193359 C 5.9043251 24.291044 6.0998847 23.02818 7.390625 23.890625 C 8.6813649 24.75307 7.5911973 25.415703 9.0253906 26.009766 C 10.459584 26.603828 10.157155 25.363165 11.679688 25.666016 C 13.202219 25.968866 12.44764 27 14 27 C 15.55236 27 14.79778 25.968866 16.320312 25.666016 C 17.842844 25.363165 17.540416 26.603828 18.974609 26.009766 C 20.408803 25.415703 19.318635 24.75307 20.609375 23.890625 C 21.900115 23.02818 22.095675 24.291043 23.193359 23.193359 C 24.291044 22.095675 23.02818 21.900115 23.890625 20.609375 C 24.75307 19.318635 25.415703 20.408803 26.009766 18.974609 C 26.603828 17.540416 25.363165 17.842845 25.666016 16.320312 C 25.968866 14.797781 27 15.55236 27 14 C 27 12.44764 25.968866 13.20222 25.666016 11.679688 C 25.363165 10.157156 26.603828 10.459584 26.009766 9.0253906 C 25.415703 7.5911968 24.75307 8.6813654 23.890625 7.390625 C 23.02818 6.0998851 24.291043 5.9043247 23.193359 4.8066406 C 22.095675 3.7089562 21.900115 4.9718202 20.609375 4.109375 C 19.318635 3.2469301 20.408803 2.5842967 18.974609 1.9902344 C 17.540416 1.3961719 17.842845 2.6368349 16.320312 2.3339844 C 14.797781 2.031134 15.55236 0.99999998 14 1 z M 14 4 A 9.9999996 9.9999996 0 0 1 24 14 A 9.9999996 9.9999996 0 0 1 14 24 A 9.9999996 9.9999996 0 0 1 4 14 A 9.9999996 9.9999996 0 0 1 14 4 z "
       transform="matrix(0.26458334,0,0,0.26458334,1.0583337,288.53332)" />
    <circle
       style="fill:#990f0f;fill-opacity:0.45121947;stroke:none;stroke-width:0.226785;stroke-opacity:1"
       id="path827"
       cx="4.7625003"
       cy="292.23749"
       r="2.6458333" />
    <circle
       style="fill:#990f0f;fill-opacity:1;stroke:#000000;stroke-width:0.0297656;stroke-miterlimit:4;stroke-dasharray:none;stroke-opacity:1"
       id="path827-1"
       cx="4.7625003"
       cy="292.23749"
       inkscape:transform-center-x="-7.3876647"
       inkscape:transform-center-y="2.6940725"
       r="2.3812499" />
    <rect
       style="fill:#fcfcfc;fill-opacity:1;stroke:#000000;stroke-width:0.05291667;stroke-opacity:1;stroke-miterlimit:4;stroke-dasharray:none"
       id="rect829"
       width="0.5291667"
       height="2.9104166"
       x="4.4979172"
       y="288.79791"
       rx="0.13229167"
       ry="0.14552085" />
  </g>
</svg>
