<?xml version="1.0" encoding="UTF-8" standalone="no"?>
<!-- Created with Inkscape (http://www.inkscape.org/) -->

<svg
   xmlns:dc="http://purl.org/dc/elements/1.1/"
   xmlns:cc="http://creativecommons.org/ns#"
   xmlns:rdf="http://www.w3.org/1999/02/22-rdf-syntax-ns#"
   xmlns:svg="http://www.w3.org/2000/svg"
   xmlns="http://www.w3.org/2000/svg"
   xmlns:sodipodi="http://sodipodi.sourceforge.net/DTD/sodipodi-0.dtd"
   xmlns:inkscape="http://www.inkscape.org/namespaces/inkscape"
   width="120"
   height="380"
   viewBox="0 0 31.75 100.54167"
   version="1.1"
   id="svg8"
   inkscape:version="0.92.2 (5c3e80d, 2017-08-06)"
   sodipodi:docname="SeqSwitch2.svg"
   inkscape:export-filename="E:\Users\Martin\Documents\Rack_Source\Rack\plugins\ML-modules\res\Quantum.png"
   inkscape:export-xdpi="96"
   inkscape:export-ydpi="96">
  <defs
     id="defs2">
    <inkscape:perspective
       sodipodi:type="inkscape:persp3d"
       inkscape:vp_x="0 : 50.270835 : 1"
       inkscape:vp_y="0 : 1000 : 0"
       inkscape:vp_z="31.75 : 50.270835 : 1"
       inkscape:persp3d-origin="15.875 : 33.51389 : 1"
       id="perspective4742" />
  </defs>
  <sodipodi:namedview
     id="base"
     pagecolor="#ffffff"
     bordercolor="#666666"
     borderopacity="1.0"
     inkscape:pageopacity="0.0"
     inkscape:pageshadow="2"
     inkscape:zoom="4"
     inkscape:cx="67.630123"
     inkscape:cy="114.8408"
     inkscape:document-units="px"
     inkscape:current-layer="layer1"
     showgrid="true"
     units="px"
     fit-margin-top="0"
     fit-margin-left="0"
     fit-margin-right="0"
     fit-margin-bottom="0"
     showguides="true"
     inkscape:snap-to-guides="false"
     objecttolerance="20"
     inkscape:window-width="1459"
     inkscape:window-height="1127"
     inkscape:window-x="61"
     inkscape:window-y="4"
     inkscape:window-maximized="0"
     gridtolerance="17"
     inkscape:snap-perpendicular="false"
     inkscape:pagecheckerboard="true"
     inkscape:snap-page="false"
     inkscape:snap-text-baseline="true">
    <inkscape:grid
       type="xygrid"
       id="grid43"
       originx="-7.3436628e-018"
       originy="100.54167"
       spacingx="0.52916668"
       spacingy="0.52916668"
       dotted="false"
       empspacing="20" />
  </sodipodi:namedview>
  <metadata
     id="metadata5">
    <rdf:RDF>
      <cc:Work
         rdf:about="">
        <dc:format>image/svg+xml</dc:format>
        <dc:type
           rdf:resource="http://purl.org/dc/dcmitype/StillImage" />
        <dc:title></dc:title>
      </cc:Work>
    </rdf:RDF>
  </metadata>
  <g
     inkscape:label="Layer 1"
     inkscape:groupmode="layer"
     id="layer1"
     transform="translate(0,-196.45832)"
     style="display:inline">
    <rect
       style="display:inline;fill:#9ca5c2;fill-opacity:1;stroke-width:0.30551454"
       id="rect4689"
       width="31.75"
       height="100.54167"
       x="-1.7347235e-018"
       y="196.45831" />
    <rect
       id="rect26-7-3-4-6-26-2-8"
       width="9.5215979"
       height="11.112449"
       x="18.525557"
       y="212.86255"
       style="display:inline;fill:#808080;fill-opacity:1;stroke-width:0.46280333"
       ry="0.92603695" />
    <g
       aria-label="Sequential
Switch 1 to 8"
       style="font-style:normal;font-variant:normal;font-weight:bold;font-stretch:normal;font-size:3.52777791px;line-height:1.25;font-family:Arial;-inkscape-font-specification:'Arial, Bold';font-variant-ligatures:normal;font-variant-caps:normal;font-variant-numeric:normal;font-feature-settings:normal;text-align:center;letter-spacing:0px;word-spacing:0px;writing-mode:lr-tb;text-anchor:middle;fill:#000000;fill-opacity:1;stroke:none;stroke-width:0.26458335"
       id="text914">
      <path
         d="m 7.0762258,203.57416 0.4960938,-0.0482 q 0.044786,0.24977 0.1808675,0.3669 0.1378038,0.11713 0.3703478,0.11713 0.2463243,0 0.3703477,-0.10335 0.125746,-0.10508 0.125746,-0.2446 0,-0.0896 -0.053399,-0.15159 -0.051676,-0.0637 -0.1825901,-0.11024 -0.089573,-0.031 -0.4082438,-0.11024 -0.4099664,-0.10163 -0.575331,-0.24977 -0.232544,-0.20843 -0.232544,-0.50815 0,-0.19293 0.1085205,-0.36002 0.1102431,-0.16881 0.3152263,-0.25666 0.2067057,-0.0878 0.4978163,-0.0878 0.4754232,0 0.7148573,0.20843 0.2411567,0.20843 0.2532146,0.55639 l -0.5098742,0.0224 q -0.032728,-0.19465 -0.1412489,-0.27905 -0.106798,-0.0861 -0.3221164,-0.0861 -0.2222087,0 -0.3479547,0.0913 -0.08096,0.0586 -0.08096,0.15676 0,0.0896 0.075792,0.1533 0.096463,0.081 0.468533,0.16881 0.3720703,0.0879 0.5494927,0.18259 0.179145,0.093 0.2790528,0.25666 0.1016303,0.16192 0.1016303,0.40136 0,0.21704 -0.1205784,0.40652 -0.1205783,0.18948 -0.3410644,0.28249 -0.2204861,0.0913 -0.5494928,0.0913 -0.4788683,0 -0.7355279,-0.22049 -0.2566596,-0.22221 -0.3066135,-0.64595 z"
         style=""
         id="path958" />
      <path
         d="m 10.617784,203.81359 0.482313,0.081 q -0.09302,0.26527 -0.294555,0.4048 -0.199816,0.1378 -0.501262,0.1378 -0.4771454,0 -0.7062443,-0.31178 -0.1808675,-0.24977 -0.1808675,-0.63045 0,-0.45475 0.2377116,-0.71141 0.2377116,-0.25838 0.6011692,-0.25838 0.408244,0 0.644233,0.27044 0.235989,0.26871 0.225654,0.8251 H 9.9132619 q 0.00517,0.21531 0.1171331,0.33589 0.111966,0.11886 0.279053,0.11886 0.113688,0 0.191203,-0.062 0.07751,-0.062 0.117133,-0.19982 z m 0.02756,-0.4892 q -0.0052,-0.21015 -0.108521,-0.31867 -0.103353,-0.11025 -0.251492,-0.11025 -0.158474,0 -0.261827,0.11541 -0.1033529,0.11542 -0.1016303,0.31351 z"
         style=""
         id="path960" />
      <path
         d="m 12.71757,205.09172 v -0.91984 q -0.09474,0.1223 -0.235989,0.19465 -0.141249,0.0706 -0.304891,0.0706 -0.311781,0 -0.513319,-0.23426 -0.237712,-0.27389 -0.237712,-0.74242 0,-0.44097 0.222209,-0.6873 0.223931,-0.24804 0.55466,-0.24804 0.18259,0 0.315226,0.0775 0.134359,0.0775 0.237712,0.23427 v -0.27044 h 0.44614 v 2.52525 z m 0.0155,-1.63297 q 0,-0.28078 -0.115411,-0.41686 -0.113688,-0.1378 -0.285943,-0.1378 -0.1757,0 -0.294556,0.13952 -0.117133,0.13953 -0.117133,0.4427 0,0.30144 0.113688,0.4358 0.113689,0.13264 0.280776,0.13264 0.167087,0 0.292833,-0.14986 0.125746,-0.14986 0.125746,-0.44614 z"
         style=""
         id="path962" />
      <path
         d="m 14.882812,204.39581 v -0.27388 q -0.09991,0.14641 -0.26355,0.23082 -0.161919,0.0844 -0.342787,0.0844 -0.184312,0 -0.330729,-0.081 -0.146416,-0.081 -0.211873,-0.22737 -0.06546,-0.14642 -0.06546,-0.4048 v -1.15755 h 0.484036 v 0.8406 q 0,0.38585 0.02584,0.4737 0.02756,0.0861 0.09818,0.13781 0.07062,0.05 0.179145,0.05 0.124024,0 0.222209,-0.0672 0.09819,-0.0689 0.134359,-0.16881 0.03617,-0.10163 0.03617,-0.49437 v -0.7717 h 0.484036 v 1.82934 z"
         style=""
         id="path964" />
      <path
         d="m 16.894748,203.81359 0.482314,0.081 q -0.09302,0.26527 -0.294556,0.4048 -0.199816,0.1378 -0.501262,0.1378 -0.477145,0 -0.706244,-0.31178 -0.180868,-0.24977 -0.180868,-0.63045 0,-0.45475 0.237712,-0.71141 0.237712,-0.25838 0.601169,-0.25838 0.408244,0 0.644233,0.27044 0.235989,0.26871 0.225654,0.8251 h -1.212674 q 0.0052,0.21531 0.117133,0.33589 0.111966,0.11886 0.279053,0.11886 0.113688,0 0.191203,-0.062 0.07751,-0.062 0.117133,-0.19982 z m 0.02756,-0.4892 q -0.0052,-0.21015 -0.108521,-0.31867 -0.103352,-0.11025 -0.251492,-0.11025 -0.158474,0 -0.261827,0.11541 -0.103353,0.11542 -0.10163,0.31351 z"
         style=""
         id="path966" />
      <path
         d="m 19.463067,204.39581 h -0.484036 v -0.93362 q 0,-0.29628 -0.03101,-0.3824 -0.03101,-0.0879 -0.101631,-0.13608 -0.0689,-0.0482 -0.167087,-0.0482 -0.125746,0 -0.225653,0.0689 -0.09991,0.0689 -0.137804,0.18259 -0.03617,0.11368 -0.03617,0.4203 v 0.82854 H 17.79564 v -1.82934 h 0.449585 v 0.26871 q 0.239434,-0.31005 0.602892,-0.31005 0.160197,0 0.292833,0.0586 0.132636,0.0568 0.199816,0.14642 0.0689,0.0896 0.09474,0.20326 0.02756,0.11369 0.02756,0.32556 z"
         style=""
         id="path968" />
      <path
         d="m 20.794597,202.56647 v 0.38585 h -0.330729 v 0.73725 q 0,0.22393 0.0086,0.26183 0.01034,0.0362 0.04306,0.0603 0.03445,0.0241 0.08268,0.0241 0.06718,0 0.194648,-0.0465 l 0.04134,0.37552 q -0.168809,0.0723 -0.382405,0.0723 -0.130914,0 -0.235989,-0.0431 -0.105076,-0.0448 -0.15503,-0.11369 -0.04823,-0.0706 -0.06718,-0.18948 -0.0155,-0.0844 -0.0155,-0.34106 v -0.79754 H 19.7559 v -0.38585 h 0.222209 v -0.36346 l 0.485759,-0.2825 v 0.64596 z"
         style=""
         id="path970" />
      <path
         d="m 21.133939,202.31842 v -0.44786 h 0.484036 v 0.44786 z m 0,2.07739 v -1.82934 h 0.484036 v 1.82934 z"
         style=""
         id="path972" />
      <path
         d="m 22.474081,203.12457 -0.43925,-0.0792 q 0.07407,-0.26528 0.254937,-0.39275 0.180867,-0.12746 0.537435,-0.12746 0.323839,0 0.482313,0.0775 0.158475,0.0758 0.222209,0.19465 0.06546,0.11713 0.06546,0.43236 l -0.0052,0.56499 q 0,0.24116 0.02239,0.35657 0.02412,0.11369 0.08785,0.2446 h -0.478868 q -0.01895,-0.0482 -0.04651,-0.14297 -0.01206,-0.0431 -0.01722,-0.0568 -0.124024,0.12058 -0.265273,0.18086 -0.141249,0.0603 -0.301446,0.0603 -0.282498,0 -0.44614,-0.1533 -0.161919,-0.15331 -0.161919,-0.38758 0,-0.15503 0.07407,-0.2756 0.07407,-0.1223 0.206706,-0.18604 0.134359,-0.0655 0.385851,-0.11369 0.339342,-0.0637 0.470255,-0.11885 v -0.0482 q 0,-0.13953 -0.0689,-0.1981 -0.0689,-0.0603 -0.260105,-0.0603 -0.129191,0 -0.201538,0.0517 -0.07235,0.0499 -0.117133,0.17742 z m 0.647677,0.39274 q -0.09302,0.031 -0.294555,0.0741 -0.201538,0.0431 -0.26355,0.0844 -0.09474,0.0672 -0.09474,0.17053 0,0.10163 0.07579,0.1757 0.07579,0.0741 0.192925,0.0741 0.130914,0 0.24977,-0.0861 0.08785,-0.0654 0.11541,-0.16019 0.01895,-0.062 0.01895,-0.23599 z"
         style=""
         id="path974" />
      <path
         d="m 24.076051,204.39581 v -2.52525 h 0.484035 v 2.52525 z"
         style=""
         id="path976" />
      <path
         d="m 5.2158742,207.98388 0.4960937,-0.0482 q 0.044786,0.24977 0.1808676,0.3669 0.1378038,0.11713 0.3703477,0.11713 0.2463244,0 0.3703478,-0.10335 0.125746,-0.10507 0.125746,-0.2446 0,-0.0896 -0.053399,-0.15158 -0.051676,-0.0637 -0.18259,-0.11025 -0.089573,-0.031 -0.4082439,-0.11024 -0.4099664,-0.10163 -0.5753309,-0.24977 -0.232544,-0.20843 -0.232544,-0.50815 0,-0.19293 0.1085205,-0.36001 0.1102431,-0.16881 0.3152263,-0.25666 0.2067057,-0.0879 0.4978163,-0.0879 0.4754232,0 0.7148573,0.20842 0.2411567,0.20843 0.2532145,0.55639 l -0.5098741,0.0224 q -0.032728,-0.19465 -0.1412489,-0.27905 -0.106798,-0.0861 -0.3221165,-0.0861 -0.2222086,0 -0.3479546,0.0913 -0.08096,0.0586 -0.08096,0.15675 0,0.0896 0.075792,0.1533 0.096463,0.081 0.468533,0.16881 0.3720704,0.0879 0.5494928,0.18259 0.179145,0.093 0.2790527,0.25666 0.1016304,0.16192 0.1016304,0.40136 0,0.21704 -0.1205784,0.40652 -0.1205783,0.18948 -0.3410645,0.2825 -0.2204861,0.0913 -0.5494927,0.0913 -0.4788683,0 -0.7355279,-0.22048 -0.2566596,-0.22221 -0.3066135,-0.64596 z"
         style=""
         id="path978" />
      <path
         d="m 8.0391299,208.80554 -0.578776,-1.82935 h 0.4702555 l 0.342787,1.19889 0.3152263,-1.19889 h 0.4668104 l 0.304891,1.19889 0.3496772,-1.19889 h 0.4771457 l -0.5873888,1.82935 H 9.1346703 l -0.3152262,-1.1765 -0.3100586,1.1765 z"
         style=""
         id="path980" />
      <path
         d="m 10.440362,206.72814 v -0.44786 h 0.484036 v 0.44786 z m 0,2.0774 v -1.82935 h 0.484036 v 1.82935 z"
         style=""
         id="path982" />
      <path
         d="m 12.257649,206.97619 v 0.38585 H 11.92692 v 0.73725 q 0,0.22393 0.0086,0.26183 0.01034,0.0362 0.04306,0.0603 0.03445,0.0241 0.08268,0.0241 0.06718,0 0.194648,-0.0465 l 0.04134,0.37552 q -0.16881,0.0724 -0.382406,0.0724 -0.130913,0 -0.235989,-0.0431 -0.105075,-0.0448 -0.155029,-0.11369 -0.04823,-0.0706 -0.06718,-0.18948 -0.0155,-0.0844 -0.0155,-0.34106 v -0.79754 h -0.222209 v -0.38585 h 0.222209 v -0.36346 l 0.485758,-0.2825 v 0.64596 z"
         style=""
         id="path984" />
      <path
         d="m 14.192071,207.51707 -0.477146,0.0861 q -0.02412,-0.14297 -0.110243,-0.21532 -0.08441,-0.0724 -0.220486,-0.0724 -0.180868,0 -0.289388,0.12575 -0.106798,0.12402 -0.106798,0.41685 0,0.32557 0.10852,0.45992 0.110243,0.13436 0.294556,0.13436 0.137804,0 0.225654,-0.0775 0.08785,-0.0792 0.124023,-0.27044 l 0.475423,0.081 q -0.07407,0.32728 -0.28422,0.49437 -0.210151,0.16709 -0.563273,0.16709 -0.401354,0 -0.640788,-0.25322 -0.237712,-0.25321 -0.237712,-0.70107 0,-0.45304 0.239434,-0.70453 0.239435,-0.25321 0.647678,-0.25321 0.334175,0 0.530545,0.14469 0.198093,0.14297 0.284221,0.43753 z"
         style=""
         id="path986" />
      <path
         d="m 15.04301,206.28028 v 0.92845 q 0.234266,-0.27388 0.559828,-0.27388 0.167087,0 0.301446,0.062 0.134358,0.062 0.201538,0.15847 0.0689,0.0965 0.09302,0.2136 0.02584,0.11713 0.02584,0.36346 v 1.07315 h -0.484035 v -0.96635 q 0,-0.28767 -0.02756,-0.36518 -0.02756,-0.0775 -0.09819,-0.1223 -0.0689,-0.0465 -0.173978,-0.0465 -0.120578,0 -0.215318,0.0586 -0.09474,0.0586 -0.139527,0.17743 -0.04306,0.11713 -0.04306,0.34795 v 0.9164 h -0.484036 v -2.52526 z"
         style=""
         id="path988" />
      <path
         d="m 18.830892,208.80554 h -0.484036 v -1.82418 q -0.265273,0.24804 -0.625285,0.3669 v -0.43925 q 0.18948,-0.062 0.411689,-0.23427 0.222209,-0.17397 0.304891,-0.40479 h 0.392741 z"
         style=""
         id="path990" />
      <path
         d="m 21.476726,206.97619 v 0.38585 h -0.33073 v 0.73725 q 0,0.22393 0.0086,0.26183 0.01033,0.0362 0.04306,0.0603 0.03445,0.0241 0.08268,0.0241 0.06718,0 0.194648,-0.0465 l 0.04134,0.37552 q -0.16881,0.0724 -0.382405,0.0724 -0.130914,0 -0.23599,-0.0431 -0.105075,-0.0448 -0.155029,-0.11369 -0.04823,-0.0706 -0.06718,-0.18948 -0.0155,-0.0844 -0.0155,-0.34106 v -0.79754 h -0.222209 v -0.38585 h 0.222209 v -0.36346 l 0.485758,-0.2825 v 0.64596 z"
         style=""
         id="path992" />
      <path
         d="m 21.704102,207.86502 q 0,-0.24115 0.118856,-0.46681 0.118855,-0.22565 0.335896,-0.34451 0.218764,-0.11885 0.487481,-0.11885 0.415134,0 0.680407,0.27044 0.265272,0.26872 0.265272,0.6804 0,0.41514 -0.268717,0.68902 -0.266995,0.27217 -0.673516,0.27217 -0.251492,0 -0.480591,-0.11369 -0.227377,-0.11369 -0.346232,-0.33245 -0.118856,-0.22049 -0.118856,-0.53572 z m 0.496094,0.0258 q 0,0.27217 0.129191,0.41686 0.129191,0.14469 0.318671,0.14469 0.18948,0 0.316949,-0.14469 0.129191,-0.14469 0.129191,-0.4203 0,-0.26872 -0.129191,-0.41341 -0.127469,-0.1447 -0.316949,-0.1447 -0.18948,0 -0.318671,0.1447 -0.129191,0.14469 -0.129191,0.41685 z"
         style=""
         id="path994" />
      <path
         d="m 25.262885,207.443 q -0.187758,-0.0792 -0.273885,-0.21704 -0.08441,-0.13953 -0.08441,-0.30489 0,-0.2825 0.196371,-0.46681 0.198093,-0.18431 0.56155,-0.18431 0.360013,0 0.558106,0.18431 0.199815,0.18431 0.199815,0.46681 0,0.1757 -0.09129,0.3135 -0.0913,0.13608 -0.25666,0.20843 0.210151,0.0844 0.318672,0.24632 0.110243,0.16192 0.110243,0.3738 0,0.34967 -0.223931,0.56844 -0.222209,0.21876 -0.592557,0.21876 -0.344509,0 -0.573608,-0.18087 -0.27044,-0.21359 -0.27044,-0.58566 0,-0.20499 0.10163,-0.37552 0.10163,-0.17225 0.320394,-0.26527 z m 0.09991,-0.48748 q 0,0.14469 0.08096,0.22565 0.08268,0.081 0.218763,0.081 0.137804,0 0.220486,-0.081 0.08268,-0.0827 0.08268,-0.22737 0,-0.13608 -0.08268,-0.21704 -0.08096,-0.0827 -0.215318,-0.0827 -0.139527,0 -0.222209,0.0827 -0.08268,0.0827 -0.08268,0.21876 z m -0.04479,1.08176 q 0,0.19981 0.10163,0.31178 0.103353,0.11197 0.25666,0.11197 0.149861,0 0.248046,-0.1068 0.09819,-0.10852 0.09819,-0.31178 0,-0.17743 -0.09991,-0.28422 -0.09991,-0.10852 -0.253215,-0.10852 -0.177422,0 -0.265272,0.1223 -0.08613,0.1223 -0.08613,0.26527 z"
         style=""
         id="path996" />
    </g>
    <g
       aria-label="Steps"
       transform="scale(0.99982131,1.0001787)"
       style="font-style:normal;font-variant:normal;font-weight:normal;font-stretch:normal;font-size:2.82171822px;line-height:1.25;font-family:Arial;-inkscape-font-specification:'Arial, Normal';font-variant-ligatures:normal;font-variant-caps:normal;font-variant-numeric:normal;font-feature-settings:normal;text-align:start;letter-spacing:0px;word-spacing:0px;writing-mode:lr-tb;text-anchor:start;display:inline;fill:#ffffff;fill-opacity:1;stroke:none;stroke-width:0.26453608"
       id="text985">
      <path
         d="m 19.713772,222.22788 0.252136,-0.0221 q 0.01791,0.15156 0.08267,0.24938 0.06613,0.0965 0.203913,0.15707 0.137779,0.0592 0.310003,0.0592 0.152935,0 0.270047,-0.0455 0.117113,-0.0455 0.173602,-0.124 0.05787,-0.0799 0.05787,-0.17361 0,-0.0951 -0.05511,-0.16533 -0.05511,-0.0717 -0.181869,-0.11987 -0.08129,-0.0317 -0.359604,-0.0978 -0.278314,-0.0675 -0.389915,-0.12676 -0.144668,-0.0758 -0.216313,-0.18738 -0.07027,-0.11298 -0.07027,-0.25213 0,-0.15294 0.0868,-0.28521 0.0868,-0.13364 0.253514,-0.20253 0.166713,-0.0689 0.370626,-0.0689 0.22458,0 0.395426,0.073 0.172224,0.0717 0.264537,0.21218 0.09231,0.14054 0.0992,0.31827 l -0.25627,0.0193 q -0.02067,-0.19151 -0.140535,-0.28934 -0.11849,-0.0978 -0.351337,-0.0978 -0.242491,0 -0.354092,0.0896 -0.110223,0.0882 -0.110223,0.21355 0,0.10885 0.07853,0.17912 0.07716,0.0703 0.402315,0.14467 0.326537,0.073 0.447782,0.12813 0.176358,0.0813 0.260403,0.20667 0.08404,0.124 0.08404,0.28658 0,0.1612 -0.09231,0.30449 -0.09231,0.14191 -0.265914,0.22183 -0.172224,0.0785 -0.388537,0.0785 -0.274181,0 -0.460182,-0.0799 -0.184625,-0.0799 -0.290715,-0.23974 -0.104712,-0.1612 -0.110223,-0.36373 z"
         style="fill:#ffffff;stroke-width:0.26453608"
         id="path1023"
         inkscape:connector-curvature="0" />
      <path
         d="m 22.199309,222.65499 0.03582,0.21907 q -0.104713,0.022 -0.18738,0.022 -0.135024,0 -0.209425,-0.0427 -0.0744,-0.0427 -0.104712,-0.1116 -0.03031,-0.0703 -0.03031,-0.29347 v -0.84183 h -0.181869 v -0.19289 h 0.181869 v -0.36236 l 0.246625,-0.1488 v 0.51116 h 0.24938 v 0.19289 h -0.24938 v 0.85561 q 0,0.10609 0.0124,0.1364 0.01378,0.0303 0.04271,0.0482 0.03031,0.0179 0.08542,0.0179 0.04133,0 0.108846,-0.01 z"
         style="fill:#ffffff;stroke-width:0.26453608"
         id="path1025"
         inkscape:connector-curvature="0" />
      <path
         d="m 23.442078,222.40561 0.256269,0.0317 q -0.06062,0.22458 -0.22458,0.34858 -0.163957,0.124 -0.418849,0.124 -0.321026,0 -0.509783,-0.19702 -0.18738,-0.1984 -0.18738,-0.55525 0,-0.36925 0.190135,-0.57316 0.190136,-0.20392 0.49325,-0.20392 0.29347,0 0.479472,0.19978 0.186002,0.19978 0.186002,0.56214 0,0.0221 -0.0014,0.0661 h -1.091212 q 0.01378,0.24111 0.136402,0.36924 0.122623,0.12814 0.30587,0.12814 0.136401,0 0.232847,-0.0717 0.09644,-0.0716 0.152935,-0.22871 z m -0.814276,-0.40094 h 0.817031 q -0.01653,-0.18462 -0.09369,-0.27693 -0.11849,-0.14329 -0.307247,-0.14329 -0.170847,0 -0.287959,0.11435 -0.115734,0.11436 -0.128135,0.30587 z"
         style="fill:#ffffff;stroke-width:0.26453608"
         id="path1027"
         inkscape:connector-curvature="0" />
      <path
         d="m 24.011106,223.43758 v -2.02398 h 0.225958 v 0.19014 q 0.07991,-0.11161 0.18049,-0.16672 0.100579,-0.0565 0.24387,-0.0565 0.187379,0 0.33067,0.0965 0.14329,0.0964 0.216313,0.2728 0.07302,0.17498 0.07302,0.38441 0,0.22458 -0.08129,0.40507 -0.07991,0.17911 -0.234224,0.27556 -0.152935,0.0951 -0.322404,0.0951 -0.124001,0 -0.223202,-0.0523 -0.09782,-0.0524 -0.161202,-0.13227 v 0.71232 z m 0.22458,-1.28411 q 0,0.28245 0.114357,0.41748 0.114356,0.13502 0.276936,0.13502 0.165335,0 0.282447,-0.13916 0.11849,-0.14053 0.11849,-0.434 0,-0.27969 -0.115734,-0.41885 -0.114357,-0.13916 -0.274181,-0.13916 -0.158446,0 -0.281069,0.1488 -0.121246,0.14743 -0.121246,0.42987 z"
         style="fill:#ffffff;stroke-width:0.26453608"
         id="path1029"
         inkscape:connector-curvature="0" />
      <path
         d="m 25.482588,222.44006 0.245247,-0.0386 q 0.02067,0.14742 0.114356,0.22596 0.09507,0.0785 0.264536,0.0785 0.170847,0 0.253514,-0.0689 0.08267,-0.0703 0.08267,-0.16396 0,-0.084 -0.07302,-0.13227 -0.05098,-0.0331 -0.253514,-0.084 -0.272803,-0.0689 -0.378893,-0.11849 -0.104712,-0.051 -0.159824,-0.13916 -0.05373,-0.0896 -0.05373,-0.19702 0,-0.0978 0.04409,-0.18049 0.04547,-0.084 0.122623,-0.13916 0.05787,-0.0427 0.157069,-0.0716 0.100578,-0.0303 0.214935,-0.0303 0.172224,0 0.301737,0.0496 0.13089,0.0496 0.192891,0.13503 0.062,0.084 0.08542,0.22596 l -0.242492,0.0331 q -0.01653,-0.11298 -0.09644,-0.17635 -0.07853,-0.0634 -0.223203,-0.0634 -0.170846,0 -0.243869,0.0565 -0.07302,0.0565 -0.07302,0.13226 0,0.0482 0.03031,0.0868 0.03031,0.04 0.09507,0.0661 0.0372,0.0138 0.219069,0.0634 0.263159,0.0703 0.366493,0.11573 0.104712,0.0441 0.163957,0.12951 0.05925,0.0854 0.05925,0.21218 0,0.12401 -0.07302,0.23423 -0.07165,0.10884 -0.208046,0.16947 -0.136402,0.0592 -0.308626,0.0592 -0.285203,0 -0.435382,-0.11849 -0.148802,-0.11849 -0.190135,-0.35133 z"
         style="fill:#ffffff;stroke-width:0.26453608"
         id="path1031"
         inkscape:connector-curvature="0" />
    </g>
    <rect
       style="fill:#ffffff;fill-opacity:1;stroke:none;stroke-width:0.31269723;stroke-opacity:1"
       id="rect840"
       width="25.363338"
       height="8.9958134"
       x="-10.054168"
       y="226.62083"
       ry="2.5219963" />
    <rect
       style="fill:#ffffff;fill-opacity:1;stroke:none;stroke-width:0.26458335;stroke-opacity:1"
       id="rect842"
       width="6.2674704"
       height="0"
       x="-7.9512682"
       y="252.09871"
       ry="0" />
    <rect
       style="fill:#ffffff;fill-opacity:1;stroke:none;stroke-width:0.31269905;stroke-opacity:1"
       id="rect840-3"
       width="25.363338"
       height="8.9959183"
       x="-10.054167"
       y="236.6749"
       ry="2.5220256" />
    <rect
       style="fill:#ffffff;fill-opacity:1;stroke:none;stroke-width:0.3127014;stroke-opacity:1"
       id="rect840-5"
       width="25.363338"
       height="8.9960546"
       x="-10.054167"
       y="246.72893"
       ry="2.5220637" />
    <rect
       style="fill:#ffffff;fill-opacity:1;stroke:none;stroke-width:0.31498843;stroke-opacity:1"
       id="rect840-36"
       width="25.363338"
       height="9.1281252"
       x="-10.054167"
       y="256.78299"
       ry="2.5590901" />
    <rect
       style="fill:#ffffff;fill-opacity:1;stroke:none;stroke-width:0.31269696;stroke-opacity:1"
       id="rect840-7"
       width="25.363338"
       height="8.9957981"
       x="16.404158"
       y="226.62085"
       ry="2.521992" />
    <rect
       style="fill:#ffffff;fill-opacity:1;stroke:none;stroke-width:0.31269932;stroke-opacity:1"
       id="rect840-4"
       width="25.363338"
       height="8.9959335"
       x="16.404158"
       y="236.67488"
       ry="2.5220299" />
    <rect
       style="fill:#ffffff;fill-opacity:1;stroke:none;stroke-width:0.31270167;stroke-opacity:1"
       id="rect840-6"
       width="25.363338"
       height="8.9960699"
       x="16.404158"
       y="246.72891"
       ry="2.5220678" />
    <rect
       style="fill:#ffffff;fill-opacity:1;stroke:none;stroke-width:0.31270403;stroke-opacity:1"
       id="rect840-2"
       width="25.363338"
       height="8.9962044"
       x="16.404158"
       y="256.78296"
       ry="2.5221057" />
    <rect
       id="rect26-7-3-4-6-26"
       width="9.5250015"
       height="11.112418"
       x="1.0583329"
       y="267.8959"
       style="fill:#808080;fill-opacity:1;stroke-width:0.46288541"
       ry="0.92603445" />
    <rect
       id="rect26-7-3-4-6-26-2"
       width="9.5250015"
       height="11.112449"
       x="21.166664"
       y="267.89587"
       style="fill:#808080;fill-opacity:1;stroke-width:0.46288604"
       ry="0.92603695" />
    <rect
       id="rect26-7-3-4-6-26-4"
       width="9.5250015"
       height="11.112449"
       x="11.112497"
       y="267.89587"
       style="fill:#808080;fill-opacity:1;stroke-width:0.46288604"
       ry="0.92603695" />
    <rect
       style="fill:#3c3c3c;fill-opacity:1;stroke:none;stroke-width:0.44273454;stroke-opacity:1"
       id="rect4778"
       width="10.583334"
       height="11.112597"
       x="3.1750004"
       y="280.06665"
       ry="1.3096442" />
    <rect
       style="fill:#3c3c3c;fill-opacity:1;stroke:none;stroke-width:0.44273394;stroke-opacity:1"
       id="rect4778-2"
       width="10.583334"
       height="11.112566"
       x="17.991669"
       y="280.06665"
       ry="1.3096406" />
    <g
       aria-label="1"
       style="font-style:normal;font-variant:normal;font-weight:normal;font-stretch:normal;font-size:3.52777767px;line-height:1.25;font-family:Arial;-inkscape-font-specification:'Arial, Normal';font-variant-ligatures:normal;font-variant-caps:normal;font-variant-numeric:normal;text-align:start;letter-spacing:0px;word-spacing:0px;writing-mode:lr-tb;text-anchor:start;fill:#000000;fill-opacity:1;stroke:none;stroke-width:0.26458335"
       id="text849">
      <path
         d="M 2.3726373,232.44165 H 2.0625787 v -1.97576 q -0.1119656,0.1068 -0.2945557,0.21359 -0.1808675,0.1068 -0.3255615,0.1602 v -0.29972 q 0.2601047,-0.1223 0.4547526,-0.29628 0.1946479,-0.17398 0.2756077,-0.33762 h 0.1998155 z"
         style="stroke-width:0.26458335"
         id="path1034" />
    </g>
    <g
       aria-label="2"
       style="font-style:normal;font-variant:normal;font-weight:normal;font-stretch:normal;font-size:3.52777791px;line-height:1.25;font-family:Arial;-inkscape-font-specification:'Arial, Normal';font-variant-ligatures:normal;font-variant-caps:normal;font-variant-numeric:normal;font-feature-settings:normal;text-align:start;letter-spacing:0px;word-spacing:0px;writing-mode:lr-tb;text-anchor:start;fill:#000000;fill-opacity:1;stroke:none;stroke-width:0.26458335"
       id="text849-6">
      <path
         d="m 2.8342802,242.19782 v 0.298 H 1.1651314 q -0.00345,-0.11197 0.036174,-0.21532 0.063734,-0.17053 0.2032606,-0.3359 0.1412489,-0.16536 0.4065213,-0.3824 0.4116889,-0.33762 0.5563829,-0.53399 0.144694,-0.19809 0.144694,-0.37379 0,-0.18432 -0.1326361,-0.31006 -0.1309137,-0.12747 -0.342787,-0.12747 -0.2239313,0 -0.35829,0.13436 -0.1343587,0.13436 -0.1360813,0.37207 l -0.3186713,-0.0327 q 0.032728,-0.35657 0.2463243,-0.5426 0.213596,-0.18776 0.5736084,-0.18776 0.3634576,0 0.575331,0.20154 0.2118734,0.20153 0.2118734,0.49954 0,0.15158 -0.062012,0.298 -0.062012,0.14641 -0.2067058,0.30833 -0.1429714,0.16192 -0.4771457,0.44442 -0.2790528,0.23427 -0.35829,0.31867 -0.079237,0.0827 -0.1309136,0.16709 z"
         style=""
         id="path1037" />
    </g>
    <g
       aria-label="3"
       style="font-style:normal;font-variant:normal;font-weight:normal;font-stretch:normal;font-size:3.52777791px;line-height:1.25;font-family:Arial;-inkscape-font-specification:'Arial, Normal';font-variant-ligatures:normal;font-variant-caps:normal;font-variant-numeric:normal;font-feature-settings:normal;text-align:start;letter-spacing:0px;word-spacing:0px;writing-mode:lr-tb;text-anchor:start;fill:#000000;fill-opacity:1;stroke:none;stroke-width:0.26458335"
       id="text849-8">
      <path
         d="m 1.2064725,251.88336 0.3100586,-0.0413 q 0.053399,0.26355 0.1808675,0.38068 0.1291911,0.11541 0.3135037,0.11541 0.2187636,0 0.3686253,-0.15158 0.1515842,-0.15158 0.1515842,-0.37552 0,-0.21359 -0.1395264,-0.35139 -0.1395264,-0.13953 -0.3548448,-0.13953 -0.08785,0 -0.2187636,0.0344 l 0.034451,-0.27216 q 0.031006,0.003 0.049954,0.003 0.198093,0 0.3565674,-0.10335 0.1584744,-0.10335 0.1584744,-0.31867 0,-0.17053 -0.1154107,-0.2825 -0.1154107,-0.11197 -0.2980008,-0.11197 -0.1808675,0 -0.3014458,0.11369 -0.1205784,0.11369 -0.1550293,0.34107 l -0.3100586,-0.0551 q 0.056844,-0.31179 0.2583821,-0.48232 0.2015381,-0.17225 0.5012615,-0.17225 0.2067057,0 0.380683,0.0896 0.1739773,0.0879 0.2652724,0.24116 0.093018,0.1533 0.093018,0.32556 0,0.16364 -0.08785,0.298 -0.08785,0.13436 -0.2601047,0.21359 0.2239312,0.0517 0.3479547,0.21532 0.1240234,0.16192 0.1240234,0.40652 0,0.33073 -0.2411567,0.56156 -0.2411567,0.22909 -0.6097819,0.22909 -0.3324517,0 -0.5529379,-0.19809 -0.2187635,-0.19809 -0.2497694,-0.51332 z"
         style=""
         id="path1040" />
    </g>
    <g
       aria-label="4"
       style="font-style:normal;font-variant:normal;font-weight:normal;font-stretch:normal;font-size:3.52777791px;line-height:1.25;font-family:Arial;-inkscape-font-specification:'Arial, Normal';font-variant-ligatures:normal;font-variant-caps:normal;font-variant-numeric:normal;font-feature-settings:normal;text-align:start;letter-spacing:0px;word-spacing:0px;writing-mode:lr-tb;text-anchor:start;fill:#000000;fill-opacity:1;stroke:none;stroke-width:0.26458335"
       id="text849-67">
      <path
         d="m 2.2307593,262.56686 v -0.60461 H 1.1352189 v -0.28422 l 1.1523845,-1.63642 h 0.2532145 v 1.63642 h 0.3410645 v 0.28422 H 2.5408179 v 0.60461 z m 0,-0.88883 v -1.1386 l -0.7906495,1.1386 z"
         style=""
         id="path1043" />
    </g>
    <g
       aria-label="5"
       style="font-style:normal;font-variant:normal;font-weight:normal;font-stretch:normal;font-size:3.52777791px;line-height:1.25;font-family:Arial;-inkscape-font-specification:'Arial, Normal';font-variant-ligatures:normal;font-variant-caps:normal;font-variant-numeric:normal;font-feature-settings:normal;text-align:start;letter-spacing:0px;word-spacing:0px;writing-mode:lr-tb;text-anchor:start;fill:#000000;fill-opacity:1;stroke:none;stroke-width:0.26458335"
       id="text849-3">
      <path
         d="m 29.250585,231.78019 0.325561,-0.0276 q 0.03617,0.23771 0.167087,0.35829 0.132636,0.11886 0.318672,0.11886 0.223931,0 0.37896,-0.16881 0.155029,-0.16881 0.155029,-0.44787 0,-0.26527 -0.149861,-0.41857 -0.148139,-0.15331 -0.389296,-0.15331 -0.149862,0 -0.27044,0.0689 -0.120578,0.0672 -0.18948,0.1757 l -0.291111,-0.0379 0.244602,-1.29707 h 1.255737 v 0.29627 h -1.00769 l -0.136082,0.67869 q 0.227377,-0.15848 0.477146,-0.15848 0.330729,0 0.558106,0.2291 0.227376,0.2291 0.227376,0.58911 0,0.34279 -0.199816,0.59256 -0.242879,0.30661 -0.66318,0.30661 -0.34451,0 -0.563274,-0.19292 -0.217041,-0.19293 -0.248046,-0.5116 z"
         style=""
         id="path1046" />
    </g>
    <g
       aria-label="6"
       style="font-style:normal;font-variant:normal;font-weight:normal;font-stretch:normal;font-size:3.52777791px;line-height:1.25;font-family:Arial;-inkscape-font-specification:'Arial, Normal';font-variant-ligatures:normal;font-variant-caps:normal;font-variant-numeric:normal;font-feature-settings:normal;text-align:start;letter-spacing:0px;word-spacing:0px;writing-mode:lr-tb;text-anchor:start;fill:#000000;fill-opacity:1;stroke:none;stroke-width:0.26458335"
       id="text849-3-5">
      <path
         d="m 30.859444,240.58896 -0.308336,0.0241 q -0.04134,-0.18259 -0.117133,-0.26527 -0.125746,-0.13263 -0.310059,-0.13263 -0.148139,0 -0.260104,0.0827 -0.146417,0.1068 -0.230822,0.31178 -0.08441,0.20498 -0.08785,0.58394 0.111966,-0.17053 0.273885,-0.25321 0.16192,-0.0827 0.339342,-0.0827 0.310059,0 0.5271,0.22909 0.218763,0.22738 0.218763,0.58912 0,0.23771 -0.103352,0.44269 -0.101631,0.20326 -0.280776,0.31178 -0.179145,0.10852 -0.406521,0.10852 -0.387573,0 -0.632175,-0.28422 -0.244602,-0.28594 -0.244602,-0.94051 0,-0.73208 0.27044,-1.06453 0.235989,-0.28939 0.63562,-0.28939 0.298001,0 0.487481,0.16709 0.191203,0.16708 0.229099,0.46164 z m -1.266072,1.08865 q 0,0.1602 0.06718,0.30661 0.0689,0.14642 0.191203,0.22393 0.122301,0.0758 0.256659,0.0758 0.196371,0 0.33762,-0.15848 0.141249,-0.15847 0.141249,-0.43064 0,-0.26182 -0.139527,-0.41168 -0.139526,-0.15159 -0.3514,-0.15159 -0.21015,0 -0.356567,0.15159 -0.146416,0.14986 -0.146416,0.39446 z"
         style=""
         id="path1049" />
    </g>
    <g
       aria-label="7"
       style="font-style:normal;font-variant:normal;font-weight:normal;font-stretch:normal;font-size:3.52777791px;line-height:1.25;font-family:Arial;-inkscape-font-specification:'Arial, Normal';font-variant-ligatures:normal;font-variant-caps:normal;font-variant-numeric:normal;font-feature-settings:normal;text-align:start;letter-spacing:0px;word-spacing:0px;writing-mode:lr-tb;text-anchor:start;fill:#000000;fill-opacity:1;stroke:none;stroke-width:0.26458335"
       id="text849-3-4">
      <path
         d="m 29.271255,250.35546 v -0.298 h 1.634698 v 0.24116 q -0.241157,0.25666 -0.478868,0.68213 -0.235989,0.42547 -0.36518,0.87505 -0.09302,0.31695 -0.118856,0.69419 h -0.318672 q 0.0052,-0.298 0.117134,-0.72003 0.111965,-0.42202 0.320394,-0.81304 0.21015,-0.39274 0.446139,-0.66146 z"
         style=""
         id="path1052" />
    </g>
    <g
       aria-label="8"
       style="font-style:normal;font-variant:normal;font-weight:normal;font-stretch:normal;font-size:3.52777791px;line-height:1.25;font-family:Arial;-inkscape-font-specification:'Arial, Normal';font-variant-ligatures:normal;font-variant-caps:normal;font-variant-numeric:normal;font-feature-settings:normal;text-align:start;letter-spacing:0px;word-spacing:0px;writing-mode:lr-tb;text-anchor:start;fill:#000000;fill-opacity:1;stroke:none;stroke-width:0.26458335"
       id="text849-3-3">
      <path
         d="m 29.72773,261.23473 q -0.192925,-0.0706 -0.285943,-0.20154 -0.09302,-0.13091 -0.09302,-0.3135 0,-0.27561 0.198093,-0.46337 0.198093,-0.18775 0.527099,-0.18775 0.33073,0 0.532268,0.19292 0.201538,0.1912 0.201538,0.46681 0,0.1757 -0.09302,0.30662 -0.09129,0.12919 -0.279053,0.19981 0.232544,0.0758 0.353123,0.2446 0.122301,0.16881 0.122301,0.40308 0,0.32384 -0.229099,0.54432 -0.229099,0.22049 -0.602892,0.22049 -0.373793,0 -0.602892,-0.22049 -0.229099,-0.2222 -0.229099,-0.55293 0,-0.24633 0.124024,-0.41169 0.125746,-0.16709 0.356567,-0.22738 z m -0.06201,-0.52538 q 0,0.17915 0.11541,0.29284 0.115411,0.11369 0.299724,0.11369 0.179145,0 0.292833,-0.11197 0.11541,-0.11369 0.11541,-0.27733 0,-0.17053 -0.118855,-0.28594 -0.117134,-0.11714 -0.292834,-0.11714 -0.177422,0 -0.294555,0.11369 -0.117133,0.11369 -0.117133,0.27216 z m -0.09991,1.16617 q 0,0.13263 0.06201,0.25666 0.06374,0.12402 0.187758,0.19292 0.124024,0.0672 0.266995,0.0672 0.222209,0 0.366903,-0.14297 0.144694,-0.14297 0.144694,-0.36346 0,-0.22393 -0.149862,-0.37034 -0.148139,-0.14642 -0.37207,-0.14642 -0.218764,0 -0.363458,0.14469 -0.142971,0.1447 -0.142971,0.36174 z"
         style=""
         id="path1055" />
    </g>
    <g
       aria-label="Up"
       style="font-style:normal;font-variant:normal;font-weight:normal;font-stretch:normal;font-size:2.82222247px;line-height:1.25;font-family:Arial;-inkscape-font-specification:'Arial, Normal';font-variant-ligatures:normal;font-variant-caps:normal;font-variant-numeric:normal;font-feature-settings:normal;text-align:start;letter-spacing:0px;word-spacing:0px;writing-mode:lr-tb;text-anchor:start;fill:#ffffff;fill-opacity:1;stroke:none;stroke-width:0.26458335"
       id="text943">
      <path
         d="m 5.776736,275.92978 h 0.2673395 v 1.1672 q 0,0.30454 -0.068902,0.48369 -0.068902,0.17914 -0.2494249,0.29214 -0.179145,0.11162 -0.4712891,0.11162 -0.2838759,0 -0.4643989,-0.0978 -0.180523,-0.0978 -0.2576932,-0.2825 -0.07717,-0.18603 -0.07717,-0.50711 v -1.1672 h 0.2673394 v 1.16582 q 0,0.2632 0.048231,0.3886 0.049609,0.12403 0.1681206,0.19155 0.1198894,0.0675 0.2921442,0.0675 0.2949002,0 0.4203016,-0.13367 0.1254015,-0.13367 0.1254015,-0.51401 z"
         style="fill:#ffffff;stroke-width:0.26458335"
         id="path1058" />
      <path
         d="m 6.4588649,278.51084 v -2.02434 h 0.2259983 v 0.19017 q 0.079926,-0.11162 0.180523,-0.16674 0.1005968,-0.0565 0.2439128,-0.0565 0.1874132,0 0.3307292,0.0965 0.143316,0.0965 0.216352,0.27286 0.073036,0.17501 0.073036,0.38447 0,0.22462 -0.081304,0.40514 -0.079926,0.17915 -0.2342665,0.27561 -0.1529623,0.0951 -0.322461,0.0951 -0.1240234,0 -0.2232422,-0.0524 -0.097841,-0.0524 -0.1612305,-0.13229 v 0.71244 z m 0.2246203,-1.28433 q 0,0.2825 0.1143772,0.41755 0.1143771,0.13504 0.2769857,0.13504 0.1653646,0 0.2824978,-0.13918 0.1185113,-0.14056 0.1185113,-0.43408 0,-0.27974 -0.1157552,-0.41892 -0.1143772,-0.13918 -0.2742296,-0.13918 -0.1584744,0 -0.2811198,0.14882 -0.1212674,0.14745 -0.1212674,0.42995 z"
         style="fill:#ffffff;stroke-width:0.26458335"
         id="path1060" />
    </g>
    <g
       aria-label="Reset"
       style="font-style:normal;font-variant:normal;font-weight:normal;font-stretch:normal;font-size:2.82222247px;line-height:1.25;font-family:Arial;-inkscape-font-specification:'Arial, Normal';font-variant-ligatures:normal;font-variant-caps:normal;font-variant-numeric:normal;font-feature-settings:normal;text-align:start;letter-spacing:0px;word-spacing:0px;writing-mode:lr-tb;text-anchor:start;fill:#ffffff;fill-opacity:1;stroke:none;stroke-width:0.26458335"
       id="text947">
      <path
         d="m 12.392699,277.94998 v -2.0202 h 0.895725 q 0.270095,0 0.410655,0.0551 0.14056,0.0537 0.22462,0.19155 0.08406,0.1378 0.08406,0.30454 0,0.21498 -0.139182,0.36243 -0.139182,0.14745 -0.429948,0.18741 0.106109,0.051 0.16123,0.1006 0.117134,0.10748 0.221864,0.26871 l 0.3514,0.54984 h -0.336241 l -0.26734,-0.4203 q -0.117133,-0.1819 -0.192925,-0.27836 -0.07579,-0.0965 -0.136426,-0.13505 -0.05926,-0.0386 -0.121267,-0.0537 -0.04548,-0.01 -0.148828,-0.01 h -0.310059 v 0.8971 z m 0.267339,-1.12861 h 0.574642 q 0.183279,0 0.286632,-0.0372 0.103353,-0.0386 0.157096,-0.12127 0.05374,-0.0841 0.05374,-0.1819 0,-0.14331 -0.104731,-0.23564 -0.103353,-0.0923 -0.327973,-0.0923 h -0.63941 z"
         style="fill:#ffffff;stroke-width:0.26458335"
         id="path1063" />
      <path
         d="m 15.3982,277.47869 0.256315,0.0317 q -0.06063,0.22462 -0.22462,0.34864 -0.163986,0.12402 -0.418924,0.12402 -0.321082,0 -0.509874,-0.19705 -0.187413,-0.19844 -0.187413,-0.55535 0,-0.36932 0.190169,-0.57327 0.19017,-0.20395 0.493338,-0.20395 0.293522,0 0.479557,0.19982 0.186036,0.19981 0.186036,0.56224 0,0.0221 -0.0014,0.0661 h -1.091407 q 0.01378,0.24116 0.136426,0.36932 0.122645,0.12815 0.305925,0.12815 0.136425,0 0.232888,-0.0717 0.09646,-0.0717 0.152962,-0.22876 z m -0.81442,-0.40101 h 0.817176 q -0.01654,-0.18465 -0.09371,-0.27698 -0.118512,-0.14332 -0.307303,-0.14332 -0.170877,0 -0.28801,0.11438 -0.115755,0.11438 -0.128157,0.30592 z"
         style="fill:#ffffff;stroke-width:0.26458335"
         id="path1065" />
      <path
         d="m 15.868111,277.51314 0.245291,-0.0386 q 0.02067,0.14745 0.114377,0.226 0.09508,0.0785 0.264584,0.0785 0.170876,0 0.253559,-0.0689 0.08268,-0.0703 0.08268,-0.16398 0,-0.0841 -0.07304,-0.1323 -0.05099,-0.0331 -0.253559,-0.0841 -0.272852,-0.0689 -0.378961,-0.11851 -0.104731,-0.051 -0.159852,-0.13918 -0.05374,-0.0896 -0.05374,-0.19706 0,-0.0978 0.0441,-0.18052 0.04547,-0.0841 0.122645,-0.13918 0.05788,-0.0427 0.157096,-0.0717 0.100597,-0.0303 0.214974,-0.0303 0.172255,0 0.301791,0.0496 0.130913,0.0496 0.192925,0.13505 0.06201,0.0841 0.08544,0.226 l -0.242534,0.0331 q -0.01654,-0.113 -0.09646,-0.17639 -0.07855,-0.0634 -0.223242,-0.0634 -0.170877,0 -0.243913,0.0565 -0.07304,0.0565 -0.07304,0.13229 0,0.0482 0.03032,0.0868 0.03032,0.04 0.09509,0.0661 0.03721,0.0138 0.219108,0.0634 0.263205,0.0703 0.366558,0.11575 0.104731,0.0441 0.163986,0.12954 0.05926,0.0854 0.05926,0.21221 0,0.12403 -0.07304,0.23427 -0.07166,0.10887 -0.208084,0.1695 -0.136426,0.0592 -0.30868,0.0592 -0.285254,0 -0.43546,-0.11851 -0.148829,-0.11851 -0.19017,-0.3514 z"
         style="fill:#ffffff;stroke-width:0.26458335"
         id="path1067" />
      <path
         d="m 18.380275,277.47869 0.256315,0.0317 q -0.06063,0.22462 -0.22462,0.34864 -0.163986,0.12402 -0.418924,0.12402 -0.321082,0 -0.509874,-0.19705 -0.187413,-0.19844 -0.187413,-0.55535 0,-0.36932 0.190169,-0.57327 0.19017,-0.20395 0.493338,-0.20395 0.293522,0 0.479557,0.19982 0.186036,0.19981 0.186036,0.56224 0,0.0221 -0.0014,0.0661 h -1.091407 q 0.01378,0.24116 0.136426,0.36932 0.122645,0.12815 0.305924,0.12815 0.136426,0 0.232889,-0.0717 0.09646,-0.0717 0.152962,-0.22876 z m -0.81442,-0.40101 h 0.817176 q -0.01654,-0.18465 -0.09371,-0.27698 -0.118512,-0.14332 -0.307303,-0.14332 -0.170877,0 -0.28801,0.11438 -0.115755,0.11438 -0.128157,0.30592 z"
         style="fill:#ffffff;stroke-width:0.26458335"
         id="path1069" />
      <path
         d="m 19.490974,277.72812 0.03583,0.21911 q -0.104731,0.022 -0.187413,0.022 -0.135048,0 -0.209462,-0.0427 -0.07441,-0.0427 -0.104731,-0.11163 -0.03032,-0.0703 -0.03032,-0.29352 v -0.84198 h -0.181901 v -0.19293 h 0.181901 v -0.36242 l 0.246669,-0.14883 v 0.51125 h 0.249425 v 0.19293 h -0.249425 v 0.85576 q 0,0.10611 0.0124,0.13643 0.01378,0.0303 0.04272,0.0482 0.03032,0.0179 0.08544,0.0179 0.04134,0 0.108865,-0.01 z"
         style="fill:#ffffff;stroke-width:0.26458335"
         id="path1071" />
    </g>
    <g
       aria-label="Down"
       style="font-style:normal;font-variant:normal;font-weight:normal;font-stretch:normal;font-size:2.82222247px;line-height:1.25;font-family:Arial;-inkscape-font-specification:'Arial, Normal';font-variant-ligatures:normal;font-variant-caps:normal;font-variant-numeric:normal;font-feature-settings:normal;text-align:start;letter-spacing:0px;word-spacing:0px;writing-mode:lr-tb;text-anchor:start;fill:#ffffff;fill-opacity:1;stroke:none;stroke-width:0.26458335"
       id="text951">
      <path
         d="m 22.44273,277.94998 v -2.0202 h 0.69591 q 0.235644,0 0.359668,0.0289 0.173633,0.04 0.296278,0.14469 0.159852,0.13505 0.238401,0.34589 0.07993,0.20946 0.07993,0.47956 0,0.23013 -0.05374,0.40789 -0.05374,0.17777 -0.137803,0.2949 -0.08406,0.11576 -0.184658,0.18328 -0.09922,0.0661 -0.241156,0.1006 -0.14056,0.0344 -0.323839,0.0344 z m 0.26734,-0.2384 h 0.431326 q 0.199815,0 0.312815,-0.0372 0.114377,-0.0372 0.181901,-0.10473 0.09508,-0.0951 0.14745,-0.25493 0.05374,-0.16123 0.05374,-0.38999 0,-0.31695 -0.104731,-0.48645 -0.103353,-0.17087 -0.252181,-0.22875 -0.107487,-0.0413 -0.345887,-0.0413 H 22.71007 Z"
         style="fill:#ffffff;stroke-width:0.26458335"
         id="path1074" />
      <path
         d="m 24.358204,277.21824 q 0,-0.40652 0.225998,-0.6022 0.188791,-0.16261 0.460265,-0.16261 0.30179,0 0.493337,0.19844 0.191548,0.19706 0.191548,0.5457 0,0.2825 -0.08544,0.44511 -0.08406,0.16123 -0.246668,0.2508 -0.161231,0.0896 -0.352778,0.0896 -0.307303,0 -0.497472,-0.19705 -0.188791,-0.19706 -0.188791,-0.56776 z m 0.254937,0 q 0,0.28112 0.122645,0.42168 0.122646,0.13918 0.308681,0.13918 0.184657,0 0.307302,-0.14055 0.122646,-0.14056 0.122646,-0.42857 0,-0.27148 -0.124024,-0.41066 -0.122645,-0.14056 -0.305924,-0.14056 -0.186035,0 -0.308681,0.13918 -0.122645,0.13918 -0.122645,0.4203 z"
         style="fill:#ffffff;stroke-width:0.26458335"
         id="path1076" />
      <path
         d="m 26.291591,277.94998 -0.447862,-1.46348 h 0.256315 l 0.232888,0.84474 0.08682,0.3142 q 0.0055,-0.0234 0.07579,-0.3018 l 0.232888,-0.85714 h 0.254938 l 0.219108,0.84888 0.07304,0.27974 0.08406,-0.2825 0.250803,-0.84612 h 0.241157 l -0.457509,1.46348 h -0.257693 l -0.232889,-0.87643 -0.0565,-0.24943 -0.296278,1.12586 z"
         style="fill:#ffffff;stroke-width:0.26458335"
         id="path1078" />
      <path
         d="m 28.060992,277.94998 v -1.46348 h 0.223242 v 0.20809 q 0.161231,-0.24116 0.465777,-0.24116 0.132292,0 0.242535,0.0482 0.111621,0.0469 0.166743,0.12403 0.05512,0.0772 0.07717,0.18328 0.01378,0.0689 0.01378,0.24115 v 0.89986 h -0.248047 v -0.89021 q 0,-0.15159 -0.02894,-0.226 -0.02894,-0.0758 -0.103353,-0.11989 -0.07304,-0.0455 -0.172255,-0.0455 -0.158474,0 -0.27423,0.10059 -0.114377,0.1006 -0.114377,0.38172 v 0.79926 z"
         style="fill:#ffffff;stroke-width:0.26458335"
         id="path1080" />
    </g>
    <g
       aria-label="Step"
       style="font-style:normal;font-variant:normal;font-weight:normal;font-stretch:normal;font-size:2.82222247px;line-height:1.25;font-family:Arial;-inkscape-font-specification:'Arial, Normal';font-variant-ligatures:normal;font-variant-caps:normal;font-variant-numeric:normal;font-feature-settings:normal;text-align:start;letter-spacing:0px;word-spacing:0px;writing-mode:lr-tb;text-anchor:start;fill:#ffffff;fill-opacity:1;stroke:none;stroke-width:0.26458335"
       id="text955">
      <path
         d="m 5.4184465,289.47176 0.252181,-0.0221 q 0.017914,0.15159 0.082682,0.24943 0.066146,0.0965 0.2039497,0.1571 0.1378038,0.0592 0.3100586,0.0592 0.1529623,0 0.2700955,-0.0455 0.1171333,-0.0455 0.1736329,-0.12403 0.057878,-0.0799 0.057878,-0.17363 0,-0.0951 -0.055122,-0.16536 -0.055122,-0.0717 -0.181901,-0.11989 -0.081304,-0.0317 -0.359668,-0.0978 -0.2783638,-0.0675 -0.3899849,-0.12678 -0.144694,-0.0758 -0.216352,-0.18742 -0.07028,-0.113 -0.07028,-0.25218 0,-0.15296 0.086816,-0.28525 0.086816,-0.13367 0.253559,-0.20257 0.1667427,-0.0689 0.3706923,-0.0689 0.2246203,0 0.395497,0.073 0.1722548,0.0717 0.2645834,0.21222 0.092328,0.14056 0.099219,0.31832 l -0.2563151,0.0193 q -0.020671,-0.19155 -0.1405599,-0.28939 -0.1185113,-0.0978 -0.3513998,-0.0978 -0.2425347,0 -0.3541558,0.0896 -0.1102431,0.0882 -0.1102431,0.2136 0,0.10886 0.078548,0.17914 0.07717,0.0703 0.4023872,0.1447 0.3265951,0.073 0.4478624,0.12815 0.1763889,0.0813 0.2604493,0.20671 0.08406,0.12402 0.08406,0.28663 0,0.16123 -0.092328,0.30455 -0.092329,0.14194 -0.2659614,0.22186 -0.1722548,0.0785 -0.3886068,0.0785 -0.2742297,0 -0.4602648,-0.0799 -0.1846572,-0.0799 -0.2907661,-0.23977 -0.1047309,-0.16124 -0.1102431,-0.36381 z"
         style="fill:#ffffff;stroke-width:0.26458335"
         id="path1083" />
      <path
         d="m 7.9044276,289.89895 0.035829,0.21911 q -0.1047309,0.022 -0.1874132,0.022 -0.1350478,0 -0.2094618,-0.0427 -0.074414,-0.0427 -0.1047309,-0.11162 -0.030317,-0.0703 -0.030317,-0.29352 v -0.84198 h -0.181901 v -0.19293 h 0.181901 v -0.36242 l 0.2466689,-0.14883 v 0.51125 h 0.2494249 v 0.19293 H 7.6550027 v 0.85576 q 0,0.10611 0.012402,0.13643 0.01378,0.0303 0.042719,0.0482 0.030317,0.0179 0.085438,0.0179 0.041341,0 0.108865,-0.01 z"
         style="fill:#ffffff;stroke-width:0.26458335"
         id="path1085" />
      <path
         d="m 9.1474182,289.64953 0.2563151,0.0317 q -0.060634,0.22463 -0.2246202,0.34865 -0.1639866,0.12402 -0.4189236,0.12402 -0.321083,0 -0.5098742,-0.19706 -0.1874132,-0.19843 -0.1874132,-0.55535 0,-0.36931 0.1901692,-0.57326 0.1901693,-0.20395 0.4933378,-0.20395 0.2935221,0 0.4795573,0.19982 0.1860352,0.19981 0.1860352,0.56223 0,0.022 -0.00138,0.0661 H 8.3192172 q 0.01378,0.24116 0.1364258,0.36931 0.1226454,0.12816 0.3059245,0.12816 0.1364258,0 0.2328885,-0.0717 0.096463,-0.0717 0.1529622,-0.22875 z m -0.8144206,-0.40101 h 0.8171767 q -0.016536,-0.18466 -0.093707,-0.27698 -0.1185113,-0.14332 -0.3073026,-0.14332 -0.1708767,0 -0.28801,0.11438 -0.1157552,0.11437 -0.1281575,0.30592 z"
         style="fill:#ffffff;stroke-width:0.26458335"
         id="path1087" />
      <path
         d="m 9.716548,290.68168 v -2.02434 h 0.2259983 v 0.19017 q 0.079926,-0.11162 0.1805227,-0.16674 0.100597,-0.0565 0.243913,-0.0565 0.187413,0 0.330729,0.0965 0.143316,0.0965 0.216352,0.27285 0.07304,0.17501 0.07304,0.38448 0,0.22462 -0.0813,0.40514 -0.07993,0.17914 -0.234266,0.27561 -0.152963,0.0951 -0.322461,0.0951 -0.124024,0 -0.223243,-0.0524 -0.09784,-0.0524 -0.1612301,-0.1323 v 0.71245 z m 0.2246202,-1.28433 q 0,0.2825 0.1143768,0.41754 0.114378,0.13505 0.276986,0.13505 0.165365,0 0.282498,-0.13918 0.118511,-0.14056 0.118511,-0.43408 0,-0.27974 -0.115755,-0.41893 -0.114377,-0.13918 -0.27423,-0.13918 -0.158474,0 -0.281119,0.14883 -0.1212678,0.14745 -0.1212678,0.42995 z"
         style="fill:#ffffff;stroke-width:0.26458335"
         id="path1089" />
    </g>
    <g
       aria-label="In"
       style="font-style:normal;font-variant:normal;font-weight:normal;font-stretch:normal;font-size:2.82222223px;line-height:1.25;font-family:Arial;-inkscape-font-specification:'Arial, Normal';font-variant-ligatures:normal;font-variant-caps:normal;font-variant-numeric:normal;font-feature-settings:normal;text-align:start;letter-spacing:0px;word-spacing:0px;writing-mode:lr-tb;text-anchor:start;fill:#ffffff;fill-opacity:1;stroke:none;stroke-width:0.26458335"
       id="text959">
      <path
         d="m 22.521281,290.12082 v -2.0202 h 0.267339 v 2.0202 z"
         style=""
         id="path1092" />
      <path
         d="m 23.226837,290.12082 v -1.46348 h 0.223242 v 0.20809 q 0.16123,-0.24116 0.465777,-0.24116 0.132291,0 0.242534,0.0482 0.111621,0.0469 0.166743,0.12402 0.05512,0.0772 0.07717,0.18328 0.01378,0.0689 0.01378,0.24116 v 0.89986 h -0.248047 v -0.89021 q 0,-0.15159 -0.02894,-0.226 -0.02894,-0.0758 -0.103353,-0.11989 -0.07304,-0.0455 -0.172255,-0.0455 -0.158474,0 -0.274229,0.1006 -0.114378,0.1006 -0.114378,0.38172 v 0.79926 z"
         style=""
         id="path1094" />
    </g>
    <path
       style="fill:none;stroke:#000000;stroke-width:0.22014664px;stroke-linecap:butt;stroke-linejoin:miter;stroke-opacity:1"
       d="m 13.758334,217.09582 c 4.7625,0 4.7625,0 4.7625,0"
       id="path873"
       inkscape:connector-curvature="0" />
    <g
       aria-label="1"
       style="font-style:normal;font-variant:normal;font-weight:normal;font-stretch:normal;font-size:2.11666679px;line-height:1.25;font-family:Arial;-inkscape-font-specification:'Arial, Normal';font-variant-ligatures:normal;font-variant-caps:normal;font-variant-numeric:normal;font-feature-settings:normal;text-align:start;letter-spacing:0px;word-spacing:0px;writing-mode:lr-tb;text-anchor:start;fill:#000000;fill-opacity:1;stroke:none;stroke-width:0.26458335"
       id="text877">
      <path
         d="M 6.0802494,222.38747 H 5.8942142 v -1.18546 q -0.067179,0.0641 -0.1767334,0.12816 -0.1085205,0.0641 -0.1953369,0.0961 v -0.17983 q 0.1560628,-0.0734 0.2728516,-0.17777 0.1167887,-0.10438 0.1653646,-0.20257 h 0.1198893 z"
         style="font-style:normal;font-variant:normal;font-weight:normal;font-stretch:normal;font-size:2.11666679px;font-family:Arial;-inkscape-font-specification:'Arial, Normal';font-variant-ligatures:normal;font-variant-caps:normal;font-variant-numeric:normal;font-feature-settings:normal;text-align:start;writing-mode:lr-tb;text-anchor:start;stroke-width:0.26458335"
         id="path999" />
    </g>
    <g
       aria-label="8"
       style="font-style:normal;font-variant:normal;font-weight:normal;font-stretch:normal;font-size:2.11666679px;line-height:1.25;font-family:Arial;-inkscape-font-specification:'Arial, Normal';font-variant-ligatures:normal;font-variant-caps:normal;font-variant-numeric:normal;font-feature-settings:normal;text-align:start;letter-spacing:0px;word-spacing:0px;writing-mode:lr-tb;text-anchor:start;fill:#000000;fill-opacity:1;stroke:none;stroke-width:0.26458335"
       id="text877-5">
      <path
         d="m 12.015803,221.56583 q -0.115755,-0.0424 -0.171566,-0.12093 -0.05581,-0.0785 -0.05581,-0.1881 0,-0.16536 0.118855,-0.27802 0.118856,-0.11265 0.31626,-0.11265 0.198438,0 0.31936,0.11575 0.120923,0.11472 0.120923,0.28009 0,0.10542 -0.05581,0.18397 -0.05478,0.0775 -0.167432,0.11989 0.139527,0.0455 0.211874,0.14676 0.07338,0.10128 0.07338,0.24184 0,0.19431 -0.137459,0.3266 -0.13746,0.13229 -0.361735,0.13229 -0.224276,0 -0.361735,-0.13229 -0.13746,-0.13333 -0.13746,-0.33176 0,-0.1478 0.07441,-0.24702 0.07545,-0.10025 0.213941,-0.13642 z m -0.03721,-0.31523 q 0,0.10749 0.06925,0.1757 0.06925,0.0682 0.179834,0.0682 0.107487,0 0.1757,-0.0672 0.06925,-0.0682 0.06925,-0.16639 0,-0.10232 -0.07131,-0.17157 -0.07028,-0.0703 -0.1757,-0.0703 -0.106453,0 -0.176733,0.0682 -0.07028,0.0682 -0.07028,0.1633 z m -0.05994,0.6997 q 0,0.0796 0.03721,0.15399 0.03824,0.0744 0.112655,0.11576 0.07441,0.0403 0.160197,0.0403 0.133325,0 0.220141,-0.0858 0.08682,-0.0858 0.08682,-0.21807 0,-0.13436 -0.08992,-0.22221 -0.08888,-0.0878 -0.223242,-0.0878 -0.131259,0 -0.218075,0.0868 -0.08578,0.0868 -0.08578,0.21704 z"
         style=""
         id="path1020" />
    </g>
    <g
       aria-label="2"
       style="font-style:normal;font-variant:normal;font-weight:normal;font-stretch:normal;font-size:2.11666679px;line-height:1.25;font-family:Arial;-inkscape-font-specification:'Arial, Normal';font-variant-ligatures:normal;font-variant-caps:normal;font-variant-numeric:normal;font-feature-settings:normal;text-align:start;letter-spacing:0px;word-spacing:0px;writing-mode:lr-tb;text-anchor:start;fill:#000000;fill-opacity:1;stroke:none;stroke-width:0.26458335"
       id="text877-6">
      <path
         d="m 4.3728601,218.96758 v 0.1788 H 3.3713708 q -0.00207,-0.0672 0.021704,-0.12919 0.038241,-0.10232 0.1219564,-0.20154 0.084749,-0.0992 0.2439127,-0.22944 0.2470134,-0.20258 0.3338298,-0.3204 0.086816,-0.11885 0.086816,-0.22427 0,-0.11059 -0.079582,-0.18604 -0.078548,-0.0765 -0.2056722,-0.0765 -0.1343587,0 -0.214974,0.0806 -0.080615,0.0806 -0.081649,0.22325 l -0.1912029,-0.0196 q 0.019637,-0.21394 0.1477946,-0.32556 0.1281576,-0.11266 0.3441651,-0.11266 0.2180746,0 0.3451986,0.12093 0.127124,0.12092 0.127124,0.29972 0,0.0909 -0.037207,0.1788 -0.037207,0.0879 -0.1240235,0.185 -0.085783,0.0971 -0.2862874,0.26665 -0.1674317,0.14056 -0.214974,0.1912 -0.047542,0.0496 -0.078548,0.10026 z"
         style=""
         id="path1002" />
    </g>
    <g
       aria-label="3"
       style="font-style:normal;font-variant:normal;font-weight:normal;font-stretch:normal;font-size:2.11666679px;line-height:1.25;font-family:Arial;-inkscape-font-specification:'Arial, Normal';font-variant-ligatures:normal;font-variant-caps:normal;font-variant-numeric:normal;font-feature-settings:normal;text-align:start;letter-spacing:0px;word-spacing:0px;writing-mode:lr-tb;text-anchor:start;fill:#000000;fill-opacity:1;stroke:none;stroke-width:0.26458335"
       id="text877-3">
      <path
         d="m 3.8922692,214.94301 0.1860352,-0.0248 q 0.032039,0.15813 0.1085205,0.22841 0.077515,0.0692 0.1881022,0.0692 0.1312582,0 0.2211752,-0.0909 0.09095,-0.0909 0.09095,-0.22531 0,-0.12815 -0.083716,-0.21084 -0.083716,-0.0837 -0.212907,-0.0837 -0.05271,0 -0.1312581,0.0207 l 0.020671,-0.1633 q 0.018604,0.002 0.029972,0.002 0.1188558,0 0.2139404,-0.062 0.095085,-0.062 0.095085,-0.19121 0,-0.10232 -0.069246,-0.1695 -0.069247,-0.0672 -0.1788005,-0.0672 -0.1085205,0 -0.1808675,0.0682 -0.072347,0.0682 -0.093018,0.20464 l -0.1860352,-0.0331 q 0.034107,-0.18706 0.1550293,-0.28938 0.1209229,-0.10336 0.3007569,-0.10336 0.1240234,0 0.2284098,0.0538 0.1043864,0.0527 0.1591634,0.14469 0.055811,0.092 0.055811,0.19534 0,0.0982 -0.05271,0.1788 -0.05271,0.0806 -0.1560628,0.12816 0.1343587,0.031 0.2087728,0.12919 0.074414,0.0971 0.074414,0.24391 0,0.19844 -0.1446941,0.33693 -0.144694,0.13746 -0.3658691,0.13746 -0.1994711,0 -0.3317627,-0.11886 -0.1312582,-0.11885 -0.1498617,-0.30799 z"
         style=""
         id="path1005" />
    </g>
    <g
       aria-label="4"
       style="font-style:normal;font-variant:normal;font-weight:normal;font-stretch:normal;font-size:2.11666679px;line-height:1.25;font-family:Arial;-inkscape-font-specification:'Arial, Normal';font-variant-ligatures:normal;font-variant-caps:normal;font-variant-numeric:normal;font-feature-settings:normal;text-align:start;letter-spacing:0px;word-spacing:0px;writing-mode:lr-tb;text-anchor:start;fill:#000000;fill-opacity:1;stroke:none;stroke-width:0.26458335"
       id="text877-8">
      <path
         d="M 7.1995611,213.29247 V 212.9297 H 6.5422369 v -0.17054 l 0.6914307,-0.98185 h 0.1519287 v 0.98185 H 7.590235 v 0.17054 H 7.3855963 v 0.36277 z m 0,-0.53331 V 212.076 l -0.4743896,0.68316 z"
         style=""
         id="path1008" />
    </g>
    <g
       aria-label="5"
       style="font-style:normal;font-variant:normal;font-weight:normal;font-stretch:normal;font-size:2.11666679px;line-height:1.25;font-family:Arial;-inkscape-font-specification:'Arial, Normal';font-variant-ligatures:normal;font-variant-caps:normal;font-variant-numeric:normal;font-feature-settings:normal;text-align:start;letter-spacing:0px;word-spacing:0px;writing-mode:lr-tb;text-anchor:start;fill:#000000;fill-opacity:1;stroke:none;stroke-width:0.26458335"
       id="text877-0">
      <path
         d="m 10.2743,212.86249 0.195337,-0.0165 q 0.0217,0.14262 0.100252,0.21497 0.07958,0.0713 0.191203,0.0713 0.134359,0 0.227376,-0.10128 0.09302,-0.10129 0.09302,-0.26872 0,-0.15916 -0.08992,-0.25115 -0.08888,-0.092 -0.233578,-0.092 -0.08992,0 -0.162264,0.0413 -0.07235,0.0403 -0.113688,0.10542 l -0.174666,-0.0227 0.146761,-0.77824 h 0.753442 v 0.17776 h -0.604614 l -0.08165,0.40721 q 0.136426,-0.0951 0.286288,-0.0951 0.198437,0 0.334863,0.13746 0.136426,0.13746 0.136426,0.35347 0,0.20567 -0.119889,0.35553 -0.145728,0.18397 -0.397909,0.18397 -0.206706,0 -0.337964,-0.11576 -0.130225,-0.11575 -0.148828,-0.30696 z"
         style=""
         id="path1011" />
    </g>
    <g
       aria-label="6"
       style="font-style:normal;font-variant:normal;font-weight:normal;font-stretch:normal;font-size:2.11666679px;line-height:1.25;font-family:Arial;-inkscape-font-specification:'Arial, Normal';font-variant-ligatures:normal;font-variant-caps:normal;font-variant-numeric:normal;font-feature-settings:normal;text-align:start;letter-spacing:0px;word-spacing:0px;writing-mode:lr-tb;text-anchor:start;fill:#000000;fill-opacity:1;stroke:none;stroke-width:0.26458335"
       id="text877-3-9">
      <path
         d="m 13.984671,214.16582 -0.185002,0.0145 q -0.0248,-0.10955 -0.07028,-0.15916 -0.07545,-0.0796 -0.186035,-0.0796 -0.08888,0 -0.156063,0.0496 -0.08785,0.0641 -0.138492,0.18707 -0.05064,0.12299 -0.05271,0.35037 0.06718,-0.10232 0.164331,-0.15193 0.09715,-0.0496 0.203605,-0.0496 0.186035,0 0.31626,0.13746 0.131258,0.13643 0.131258,0.35347 0,0.14262 -0.06201,0.26561 -0.06098,0.12196 -0.168465,0.18707 -0.107487,0.0651 -0.243913,0.0651 -0.232544,0 -0.379305,-0.17053 -0.146761,-0.17156 -0.146761,-0.5643 0,-0.43925 0.162264,-0.63872 0.141593,-0.17364 0.381372,-0.17364 0.1788,0 0.292489,0.10025 0.114721,0.10026 0.137459,0.27699 z m -0.759644,0.65319 q 0,0.0961 0.04031,0.18397 0.04134,0.0879 0.114722,0.13436 0.07338,0.0455 0.153995,0.0455 0.117823,0 0.202572,-0.0951 0.08475,-0.0951 0.08475,-0.25838 0,-0.1571 -0.08371,-0.24702 -0.08372,-0.091 -0.21084,-0.091 -0.126091,0 -0.213941,0.091 -0.08785,0.0899 -0.08785,0.23668 z"
         style=""
         id="path1014" />
    </g>
    <g
       aria-label="7"
       style="font-style:normal;font-variant:normal;font-weight:normal;font-stretch:normal;font-size:2.11666679px;line-height:1.25;font-family:Arial;-inkscape-font-specification:'Arial, Normal';font-variant-ligatures:normal;font-variant-caps:normal;font-variant-numeric:normal;font-feature-settings:normal;text-align:start;letter-spacing:0px;word-spacing:0px;writing-mode:lr-tb;text-anchor:start;fill:#000000;fill-opacity:1;stroke:none;stroke-width:0.26458335"
       id="text877-6-1">
      <path
         d="m 13.759365,217.82966 v -0.1788 h 0.980819 v 0.1447 q -0.144694,0.15399 -0.287321,0.40927 -0.141593,0.25528 -0.219108,0.52504 -0.05581,0.19016 -0.07131,0.41651 h -0.191202 q 0.0031,-0.1788 0.07028,-0.43202 0.06718,-0.25321 0.192236,-0.48782 0.12609,-0.23565 0.267684,-0.39688 z"
         style=""
         id="path1017" />
    </g>
    <g
       id="g4799"
       transform="matrix(0.25,0,0,0.25,10.758325,270.30584)"
       style="display:inline;fill:#000000;fill-opacity:1">
      <rect
         ry="0.52916306"
         y="83.608337"
         x="15.345834"
         height="14.816664"
         width="1.5874993"
         id="rect4736"
         style="fill:#000000;fill-opacity:1;stroke-width:0.22136623" />
      <rect
         ry="0.45475155"
         y="96.605995"
         x="15.345834"
         height="1.8190105"
         width="10.583333"
         id="rect4738"
         style="fill:#000000;fill-opacity:1;stroke-width:0.27422616" />
      <rect
         ry="0.52916306"
         y="83.608337"
         x="24.341667"
         height="11.641667"
         width="1.5874995"
         id="rect4759"
         style="fill:#000000;fill-opacity:1;stroke-width:0.22913586" />
      <rect
         rx="0.90335584"
         transform="matrix(1,0,0.54885411,0.83591816,0,0)"
         ry="0.3740643"
         y="100.01976"
         x="-39.523911"
         height="8.2294703"
         width="1.8067117"
         id="rect4759-7"
         style="fill:#000000;fill-opacity:1;stroke-width:0.20552233" />
      <rect
         rx="0.92604923"
         transform="matrix(1,0,0.55837942,-0.82958569,0,0)"
         ry="0.47381043"
         y="-109.07553"
         x="80.484703"
         height="8.2922926"
         width="1.8520985"
         id="rect4759-7-3"
         style="fill:#000000;fill-opacity:1;stroke-width:0.20888054" />
    </g>
  </g>
</svg>
