<?xml version="1.0" encoding="UTF-8" standalone="no"?>
<!-- Created with Inkscape (http://www.inkscape.org/) -->

<svg
   xmlns:dc="http://purl.org/dc/elements/1.1/"
   xmlns:cc="http://creativecommons.org/ns#"
   xmlns:rdf="http://www.w3.org/1999/02/22-rdf-syntax-ns#"
   xmlns:svg="http://www.w3.org/2000/svg"
   xmlns="http://www.w3.org/2000/svg"
   xmlns:sodipodi="http://sodipodi.sourceforge.net/DTD/sodipodi-0.dtd"
   xmlns:inkscape="http://www.inkscape.org/namespaces/inkscape"
   width="45"
   height="380"
   viewBox="0 0 11.90625 100.54167"
   version="1.1"
   id="svg8"
   inkscape:version="0.92.2 (5c3e80d, 2017-08-06)"
   sodipodi:docname="Sum8.svg"
   inkscape:export-filename="E:\Users\Martin\Documents\Rack_Source\rack\plugins\ML_modules\res\TrigBuf.png"
   inkscape:export-xdpi="96"
   inkscape:export-ydpi="96">
  <defs
     id="defs2">
    <inkscape:perspective
       sodipodi:type="inkscape:persp3d"
       inkscape:vp_x="0 : 50.270835 : 1"
       inkscape:vp_y="0 : 1000 : 0"
       inkscape:vp_z="31.75 : 50.270835 : 1"
       inkscape:persp3d-origin="15.875 : 33.51389 : 1"
       id="perspective4742" />
  </defs>
  <sodipodi:namedview
     id="base"
     pagecolor="#ffffff"
     bordercolor="#666666"
     borderopacity="1.0"
     inkscape:pageopacity="0.0"
     inkscape:pageshadow="2"
     inkscape:zoom="11.313708"
     inkscape:cx="27.25"
     inkscape:cy="321.09892"
     inkscape:document-units="px"
     inkscape:current-layer="layer1"
     showgrid="true"
     units="px"
     fit-margin-top="0"
     fit-margin-left="0"
     fit-margin-right="0"
     fit-margin-bottom="0"
     showguides="false"
     inkscape:snap-to-guides="false"
     objecttolerance="20"
     inkscape:window-width="1375"
     inkscape:window-height="1028"
     inkscape:window-x="393"
     inkscape:window-y="20"
     inkscape:window-maximized="0"
     gridtolerance="17"
     inkscape:snap-perpendicular="false"
     inkscape:pagecheckerboard="true"
     inkscape:snap-page="true"
     inkscape:snap-text-baseline="true"
     showborder="true">
    <inkscape:grid
       type="xygrid"
       id="grid43"
       originx="0"
       originy="100.54167"
       spacingx="0.52916668"
       spacingy="0.52916668"
       dotted="false"
       empspacing="20" />
  </sodipodi:namedview>
  <metadata
     id="metadata5">
    <rdf:RDF>
      <cc:Work
         rdf:about="">
        <dc:format>image/svg+xml</dc:format>
        <dc:type
           rdf:resource="http://purl.org/dc/dcmitype/StillImage" />
        <dc:title></dc:title>
      </cc:Work>
    </rdf:RDF>
  </metadata>
  <g
     inkscape:groupmode="layer"
     id="layer2"
     inkscape:label="Layer 2"
     transform="translate(0.26458305,6.2806193e-6)">
    <rect
       style="fill:#9ca5c2;fill-opacity:1;stroke-width:0.18708867"
       id="rect4689"
       width="11.90625"
       height="100.54167"
       x="-0.26458305"
       y="-6.2806193e-06" />
    <g
       aria-label="M"
       style="font-style:normal;font-variant:normal;font-weight:bold;font-stretch:normal;font-size:19.75555611px;line-height:1.25;font-family:Arial;-inkscape-font-specification:'Arial, Bold';font-variant-ligatures:normal;font-variant-caps:normal;font-variant-numeric:normal;font-feature-settings:normal;text-align:start;letter-spacing:0px;word-spacing:0px;writing-mode:lr-tb;text-anchor:start;fill:#000000;fill-opacity:1;stroke:none;stroke-width:0.26458335"
       id="text4720" />
    <g
       id="g4799"
       transform="matrix(0.25,0,0,0.25,3.5718743,74.083327)"
       style="fill:#000000;fill-opacity:1">
      <rect
         ry="0.52916306"
         y="83.608337"
         x="15.345834"
         height="14.816664"
         width="1.5874993"
         id="rect4736"
         style="fill:#000000;fill-opacity:1;stroke-width:0.22136623" />
      <rect
         ry="0.45475155"
         y="96.605995"
         x="15.345834"
         height="1.8190105"
         width="10.583333"
         id="rect4738"
         style="fill:#000000;fill-opacity:1;stroke-width:0.27422616" />
      <rect
         ry="0.52916306"
         y="83.608337"
         x="24.341667"
         height="11.641667"
         width="1.5874995"
         id="rect4759"
         style="fill:#000000;fill-opacity:1;stroke-width:0.22913586" />
      <rect
         rx="0.90335584"
         transform="matrix(1,0,0.54885411,0.83591816,0,0)"
         ry="0.3740643"
         y="100.01976"
         x="-39.523911"
         height="8.2294703"
         width="1.8067117"
         id="rect4759-7"
         style="fill:#000000;fill-opacity:1;stroke-width:0.20552233" />
      <rect
         rx="0.92604923"
         transform="matrix(1,0,0.55837942,-0.82958569,0,0)"
         ry="0.47381043"
         y="-109.07553"
         x="80.484703"
         height="8.2922926"
         width="1.8520985"
         id="rect4759-7-3"
         style="fill:#000000;fill-opacity:1;stroke-width:0.20888054" />
    </g>
    <path
       style="opacity:1;fill:#808080;fill-opacity:1;stroke-width:0.90113842"
       d="m 2.7562489,13.229161 c -0.5009656,0 -0.9041652,0.417103 -0.9041652,0.935343 v 61.629314 c 0,0.518242 0.4031996,0.935344 0.9041652,0.935344 h 5.8645864 c 0.5009657,0 0.9041652,-0.417102 0.9041652,-0.935344 V 14.164504 c 0,-0.51824 -0.4031995,-0.935343 -0.9041652,-0.935343 z"
       id="rect4778-7-6"
       inkscape:connector-curvature="0" />
  </g>
  <g
     inkscape:label="Layer 1"
     inkscape:groupmode="layer"
     id="layer1"
     transform="translate(0.26458305,-196.45831)">
    <g
       aria-label="Sum"
       style="font-style:normal;font-variant:normal;font-weight:normal;font-stretch:normal;font-size:3.52777791px;line-height:1.25;font-family:Arial;-inkscape-font-specification:'Arial, Normal';font-variant-ligatures:normal;font-variant-caps:normal;font-variant-numeric:normal;font-feature-settings:normal;text-align:center;letter-spacing:0px;word-spacing:0px;writing-mode:lr-tb;text-anchor:middle;fill:#000000;fill-opacity:1;stroke:none;stroke-width:0.26458335"
       id="text3757">
      <path
         d="m 1.9969329,203.47295 0.3152262,-0.0276 q 0.022393,0.18948 0.1033529,0.31178 0.082682,0.12058 0.254937,0.19637 0.1722548,0.0741 0.3875733,0.0741 0.1912028,0 0.3376194,-0.0568 0.1464165,-0.0568 0.217041,-0.15503 0.072347,-0.0999 0.072347,-0.21704 0,-0.11886 -0.068902,-0.20671 -0.068902,-0.0896 -0.2273763,-0.14986 -0.1016303,-0.0396 -0.449585,-0.1223 -0.3479547,-0.0844 -0.487481,-0.15848 -0.1808675,-0.0947 -0.27044,-0.23426 -0.08785,-0.14125 -0.08785,-0.31523 0,-0.1912 0.1085205,-0.35657 0.1085206,-0.16708 0.3169488,-0.25321 0.2084283,-0.0861 0.4633654,-0.0861 0.2807753,0 0.4943712,0.0913 0.2153185,0.0896 0.3307292,0.26527 0.1154107,0.1757 0.1240234,0.39791 l -0.3203939,0.0241 q -0.025838,-0.23943 -0.1756998,-0.36173 -0.1481391,-0.1223 -0.4392497,-0.1223 -0.3031684,0 -0.4426948,0.11196 -0.1378038,0.11025 -0.1378038,0.267 0,0.13608 0.098185,0.22393 0.096463,0.0878 0.502984,0.18087 0.4082438,0.0913 0.559828,0.16019 0.2204861,0.10163 0.3255615,0.25839 0.1050754,0.15503 0.1050754,0.35829 0,0.20153 -0.1154107,0.38068 -0.1154107,0.17742 -0.3324517,0.27733 -0.2153185,0.0982 -0.4857585,0.0982 -0.342787,0 -0.5753309,-0.0999 -0.2308214,-0.0999 -0.3634576,-0.29973 -0.1309137,-0.20153 -0.1378038,-0.45475 z"
         style=""
         id="path849" />
      <path
         d="m 5.626341,204.28427 v -0.26872 q -0.2135959,0.31006 -0.5804986,0.31006 -0.1619195,0 -0.3031684,-0.062 -0.1395264,-0.062 -0.2084283,-0.15503 -0.067179,-0.0947 -0.09474,-0.23082 -0.018948,-0.0913 -0.018948,-0.28939 v -1.13343 h 0.3100586 v 1.01458 q 0,0.24288 0.018948,0.32728 0.029283,0.1223 0.1240234,0.19293 0.09474,0.0689 0.2342665,0.0689 0.1395264,0 0.2618273,-0.0706 0.1223009,-0.0723 0.1722548,-0.19464 0.051676,-0.12403 0.051676,-0.35829 v -0.98013 h 0.3100586 v 1.82934 z"
         style=""
         id="path851" />
      <path
         d="m 6.3911523,204.28427 v -1.82934 h 0.2773302 v 0.25666 q 0.086127,-0.13436 0.2290989,-0.21532 0.1429714,-0.0827 0.3255615,-0.0827 0.2032606,0 0.3324517,0.0844 0.1309137,0.0844 0.1843126,0.23599 0.2170411,-0.3204 0.5649957,-0.3204 0.2721626,0 0.4185791,0.15159 0.1464166,0.14986 0.1464166,0.46336 v 1.25574 H 8.5615625 v -1.15238 q 0,-0.18604 -0.031006,-0.267 -0.029283,-0.0827 -0.1085205,-0.13263 -0.079237,-0.05 -0.1860352,-0.05 -0.1929253,0 -0.3203939,0.12919 -0.1274685,0.12747 -0.1274685,0.40997 v 1.06281 H 7.47808 v -1.18856 q 0,-0.2067 -0.075792,-0.31006 -0.075792,-0.10335 -0.2480469,-0.10335 -0.1309136,0 -0.2428793,0.0689 -0.110243,0.0689 -0.1601969,0.20154 -0.049954,0.13264 -0.049954,0.38241 v 0.94912 z"
         style=""
         id="path853" />
    </g>
    <rect
       style="fill:#3c3c3c;fill-opacity:1;stroke-width:0.41945705"
       id="rect4778"
       width="7.6729169"
       height="13.758333"
       x="-9.5249996"
       y="-288.79788"
       ry="1.6214502"
       transform="scale(-1)" />
    <g
       aria-label="Ins"
       style="font-style:normal;font-variant:normal;font-weight:bold;font-stretch:normal;font-size:2.82222223px;line-height:1.25;font-family:Arial;-inkscape-font-specification:'Arial, Bold';font-variant-ligatures:normal;font-variant-caps:normal;font-variant-numeric:normal;font-feature-settings:normal;text-align:start;letter-spacing:0px;word-spacing:0px;writing-mode:lr-tb;text-anchor:start;fill:#ffffff;fill-opacity:1;stroke:none;stroke-width:0.26458335"
       id="text4847">
      <path
         d="m 3.8196377,212.86272 v -2.02021 H 4.227537 v 2.02021 z"
         style=""
         id="path842" />
      <path
         d="M 5.9431945,212.86272 H 5.5559658 v -0.7469 q 0,-0.23702 -0.024805,-0.30592 -0.024805,-0.0703 -0.081304,-0.10887 -0.055122,-0.0386 -0.1336698,-0.0386 -0.1005967,0 -0.180523,0.0551 -0.079926,0.0551 -0.110243,0.14607 -0.028939,0.0909 -0.028939,0.33624 v 0.66284 H 4.6092536 v -1.46348 h 0.3596679 v 0.21497 q 0.1915473,-0.24804 0.4823134,-0.24804 0.1281575,0 0.2342665,0.0468 0.1061089,0.0455 0.1598524,0.11713 0.055122,0.0717 0.075792,0.16261 0.022049,0.091 0.022049,0.26045 z"
         style=""
         id="path844" />
      <path
         d="m 6.2008876,212.44517 0.3886068,-0.0592 q 0.024805,0.11299 0.1005968,0.17225 0.075792,0.0579 0.2122179,0.0579 0.1502061,0 0.2259982,-0.0551 0.050987,-0.0386 0.050987,-0.10336 0,-0.0441 -0.027561,-0.073 -0.028939,-0.0276 -0.1295356,-0.051 -0.468533,-0.10335 -0.5939345,-0.18879 -0.1736328,-0.11851 -0.1736328,-0.32935 0,-0.19017 0.1502062,-0.31971 0.1502061,-0.12953 0.4657769,-0.12953 0.3004123,0 0.4464844,0.0978 0.146072,0.0978 0.2011935,0.28939 l -0.3651801,0.0675 q -0.023427,-0.0854 -0.089573,-0.13091 -0.064768,-0.0455 -0.1860351,-0.0455 -0.1529623,0 -0.2191081,0.0427 -0.044097,0.0303 -0.044097,0.0786 0,0.0413 0.038585,0.0703 0.052366,0.0386 0.3610461,0.10886 0.3100585,0.0703 0.4327039,0.17226 0.1212674,0.10335 0.1212674,0.28801 0,0.20119 -0.1681206,0.34589 -0.1681207,0.14469 -0.4974718,0.14469 -0.2990343,0 -0.4740452,-0.12127 -0.1736328,-0.12127 -0.2273763,-0.32935 z"
         style=""
         id="path846" />
    </g>
    <g
       aria-label="Out"
       style="font-style:normal;font-variant:normal;font-weight:bold;font-stretch:normal;font-size:2.82222223px;line-height:1.25;font-family:Arial;-inkscape-font-specification:'Arial, Bold';font-variant-ligatures:normal;font-variant-caps:normal;font-variant-numeric:normal;font-feature-settings:normal;text-align:start;letter-spacing:0px;word-spacing:0px;writing-mode:lr-tb;text-anchor:start;fill:#ffffff;fill-opacity:1;stroke:none;stroke-width:0.26458335"
       id="text4847-3">
      <path
         d="m 3.2919922,277.96775 q 0,-0.30868 0.092329,-0.51814 0.068902,-0.15434 0.1874132,-0.27698 0.1198893,-0.12265 0.2618272,-0.1819 0.1887913,-0.0799 0.4354601,-0.0799 0.4464844,0 0.7138238,0.27698 0.2687174,0.27699 0.2687174,0.77033 0,0.4892 -0.2659613,0.76619 -0.2659614,0.27561 -0.7110678,0.27561 -0.4506184,0 -0.7165798,-0.27423 -0.2659614,-0.27561 -0.2659614,-0.75793 z m 0.4203017,-0.0138 q 0,0.34314 0.1584744,0.5209 0.1584743,0.17639 0.4023871,0.17639 0.2439128,0 0.3996311,-0.17501 0.1570963,-0.17639 0.1570963,-0.52779 0,-0.34726 -0.1529622,-0.51814 -0.1515842,-0.17088 -0.4037652,-0.17088 -0.252181,0 -0.4065213,0.17364 -0.1543402,0.17225 -0.1543402,0.52089 z"
         style=""
         id="path835" />
      <path
         d="m 6.5290041,278.96545 v -0.2191 q -0.079926,0.11713 -0.2108399,0.18465 -0.1295356,0.0675 -0.2742296,0.0675 -0.1474501,0 -0.2645833,-0.0648 -0.1171333,-0.0648 -0.1694987,-0.1819 -0.052365,-0.11714 -0.052365,-0.32384 v -0.92604 h 0.3872288 v 0.67248 q 0,0.30868 0.02067,0.37896 0.022049,0.0689 0.078548,0.11024 0.0565,0.04 0.143316,0.04 0.099219,0 0.1777669,-0.0537 0.078548,-0.0551 0.107487,-0.13504 0.028939,-0.0813 0.028939,-0.3955 v -0.61736 H 6.888672 v 1.46347 z"
         style=""
         id="path837" />
      <path
         d="m 7.9621638,277.50198 v 0.30868 H 7.6975805 v 0.5898 q 0,0.17914 0.00689,0.20946 0.00827,0.0289 0.034451,0.0482 0.027561,0.0193 0.066146,0.0193 0.053744,0 0.1557183,-0.0372 l 0.033073,0.30041 q -0.1350477,0.0579 -0.3059245,0.0579 -0.1047309,0 -0.1887912,-0.0344 -0.08406,-0.0358 -0.1240234,-0.091 -0.038585,-0.0565 -0.053743,-0.15159 -0.012402,-0.0675 -0.012402,-0.27285 v -0.63803 H 7.1312068 v -0.30868 h 0.1777669 v -0.29077 l 0.3886068,-0.226 v 0.51677 z"
         style=""
         id="path839" />
    </g>
  </g>
</svg>
