<?xml version="1.0" encoding="UTF-8" standalone="no"?>
<!-- Created with Inkscape (http://www.inkscape.org/) -->

<svg
   xmlns:dc="http://purl.org/dc/elements/1.1/"
   xmlns:cc="http://creativecommons.org/ns#"
   xmlns:rdf="http://www.w3.org/1999/02/22-rdf-syntax-ns#"
   xmlns:svg="http://www.w3.org/2000/svg"
   xmlns="http://www.w3.org/2000/svg"
   xmlns:sodipodi="http://sodipodi.sourceforge.net/DTD/sodipodi-0.dtd"
   xmlns:inkscape="http://www.inkscape.org/namespaces/inkscape"
   width="120"
   height="380"
   viewBox="0 0 31.75 100.54167"
   version="1.1"
   id="svg8"
   inkscape:version="0.92.2 (5c3e80d, 2017-08-06)"
   sodipodi:docname="VoltMeter.svg"
   inkscape:export-filename="E:\Users\Martin\Documents\Rack_Source\Rack\plugins\ML-modules\res\Quantum.png"
   inkscape:export-xdpi="96"
   inkscape:export-ydpi="96">
  <defs
     id="defs2">
    <inkscape:perspective
       sodipodi:type="inkscape:persp3d"
       inkscape:vp_x="0 : 50.270835 : 1"
       inkscape:vp_y="0 : 1000 : 0"
       inkscape:vp_z="31.75 : 50.270835 : 1"
       inkscape:persp3d-origin="15.875 : 33.51389 : 1"
       id="perspective4742" />
  </defs>
  <sodipodi:namedview
     id="base"
     pagecolor="#ffffff"
     bordercolor="#666666"
     borderopacity="1.0"
     inkscape:pageopacity="0.0"
     inkscape:pageshadow="2"
     inkscape:zoom="4"
     inkscape:cx="60.840112"
     inkscape:cy="324.50268"
     inkscape:document-units="px"
     inkscape:current-layer="layer1"
     showgrid="true"
     units="px"
     fit-margin-top="0"
     fit-margin-left="0"
     fit-margin-right="0"
     fit-margin-bottom="0"
     showguides="true"
     inkscape:snap-to-guides="false"
     objecttolerance="20"
     inkscape:window-width="1754"
     inkscape:window-height="1127"
     inkscape:window-x="61"
     inkscape:window-y="4"
     inkscape:window-maximized="0"
     gridtolerance="17"
     inkscape:snap-perpendicular="false"
     inkscape:pagecheckerboard="true"
     inkscape:snap-page="false"
     inkscape:snap-text-baseline="true">
    <inkscape:grid
       type="xygrid"
       id="grid43"
       originx="-7.3436628e-018"
       originy="100.54167"
       spacingx="0.52916668"
       spacingy="0.52916668"
       dotted="false"
       empspacing="20" />
  </sodipodi:namedview>
  <metadata
     id="metadata5">
    <rdf:RDF>
      <cc:Work
         rdf:about="">
        <dc:format>image/svg+xml</dc:format>
        <dc:type
           rdf:resource="http://purl.org/dc/dcmitype/StillImage" />
        <dc:title></dc:title>
      </cc:Work>
    </rdf:RDF>
  </metadata>
  <g
     inkscape:groupmode="layer"
     id="layer2"
     inkscape:label="Layer 2">
    <rect
       style="fill:#7c7c7c;fill-opacity:1;stroke-width:0.26458335"
       id="rect4667"
       width="23.8125"
       height="100.54167"
       x="-7.3436632e-018"
       y="-1.6666667e-006" />
    <path
       style="fill:#7c7c7c;fill-opacity:1;stroke-width:0.35355338"
       d="M 0.1193696,216.91378 V 54.102446 H 45.02065 89.921931 V 216.91378 379.72512 H 45.02065 0.1193696 Z m 50.1216984,93.07293 -0.09389,-9.98788 -5.038135,-0.0981 -5.038136,-0.0981 v -9.88979 -9.88979 h 5.132029 5.132032 l -0.0939,-9.98788 -0.09389,-9.98788 -5.038135,-0.0981 -5.038136,-0.0981 v -9.88009 -9.88008 l 5.038136,-0.0981 5.038135,-0.0981 v -19.97576 -19.97577 l -5.038135,-0.0981 -5.038136,-0.0981 v -9.70331 -9.7033 l 5.038136,-0.0981 5.038135,-0.0981 v -10.07627 -10.07627 l -5.038135,-0.0981 -5.038136,-0.0981 v -9.88979 -9.88979 h 5.132029 5.132032 l -0.0939,-9.98788 -0.09389,-9.98789 -5.038135,-0.0981 -5.038136,-0.0981 v -9.88008 -9.88008 l 5.038136,-0.09809 5.038135,-0.0981 V 89.988115 80.08862 L 35.032771,79.99644 19.918363,79.90425 v 10.080067 10.080073 h -4.949747 -4.949747 v 9.89949 9.8995 h 4.949747 4.949747 v 10.07627 10.07627 h -4.949747 -4.949747 v 9.89949 9.8995 h 4.949747 4.949747 v 10.07627 10.07627 h -4.949747 -4.949747 v 9.8995 9.89949 h 4.949747 4.949747 v 20.15255 20.15254 h -4.949747 -4.949747 v 9.89949 9.8995 h 4.949747 4.949747 v 10.07627 10.07627 h -4.949747 -4.949747 v 9.8995 9.89949 h 4.949747 4.949747 v 10.07627 10.07628 H 35.12666 50.334964 Z"
       id="path4669"
       inkscape:connector-curvature="0"
       transform="scale(0.26458334)" />
    <path
       style="fill:#7c7c7c;fill-opacity:1;stroke-width:0.35355338"
       d="M 0.1193696,216.91378 V 54.102446 H 45.02065 89.921931 V 216.91378 379.72512 H 45.02065 0.1193696 Z m 50.1216984,93.07293 -0.09389,-9.98788 -5.038135,-0.0981 -5.038136,-0.0981 v -9.88979 -9.88979 h 5.132029 5.132032 l -0.0939,-9.98788 -0.09389,-9.98788 -5.038135,-0.0981 -5.038136,-0.0981 v -9.88009 -9.88008 l 5.038136,-0.0981 5.038135,-0.0981 v -19.97576 -19.97577 l -5.038135,-0.0981 -5.038136,-0.0981 v -9.70331 -9.7033 l 5.038136,-0.0981 5.038135,-0.0981 v -10.07627 -10.07627 l -5.038135,-0.0981 -5.038136,-0.0981 v -9.88979 -9.88979 h 5.132029 5.132032 l -0.0939,-9.98788 -0.09389,-9.98789 -5.038135,-0.0981 -5.038136,-0.0981 v -9.88008 -9.88008 l 5.038136,-0.09809 5.038135,-0.0981 V 89.988115 80.08862 L 35.032771,79.99644 19.918363,79.90425 v 10.080067 10.080073 h -4.949747 -4.949747 v 9.89949 9.8995 h 4.949747 4.949747 v 10.07627 10.07627 h -4.949747 -4.949747 v 9.89949 9.8995 h 4.949747 4.949747 v 10.07627 10.07627 h -4.949747 -4.949747 v 9.8995 9.89949 h 4.949747 4.949747 v 20.15255 20.15254 h -4.949747 -4.949747 v 9.89949 9.8995 h 4.949747 4.949747 v 10.07627 10.07627 h -4.949747 -4.949747 v 9.8995 9.89949 h 4.949747 4.949747 v 10.07627 10.07628 H 35.12666 50.334964 Z"
       id="path4671"
       inkscape:connector-curvature="0"
       transform="scale(0.26458334)" />
    <path
       style="fill:#7c7c7c;fill-opacity:1;stroke-width:0.35355338"
       d="M 0.1193696,216.91378 V 54.102446 H 45.02065 89.921931 V 216.91378 379.72512 H 45.02065 0.1193696 Z m 50.1216984,93.07293 -0.09389,-9.98788 -5.038135,-0.0981 -5.038136,-0.0981 v -9.88979 -9.88979 h 5.132029 5.132032 l -0.0939,-9.98788 -0.09389,-9.98788 -5.038135,-0.0981 -5.038136,-0.0981 v -9.88009 -9.88008 l 5.038136,-0.0981 5.038135,-0.0981 v -19.97576 -19.97577 l -5.038135,-0.0981 -5.038136,-0.0981 v -9.70331 -9.7033 l 5.038136,-0.0981 5.038135,-0.0981 v -10.07627 -10.07627 l -5.038135,-0.0981 -5.038136,-0.0981 v -9.88979 -9.88979 h 5.132029 5.132032 l -0.0939,-9.98788 -0.09389,-9.98789 -5.038135,-0.0981 -5.038136,-0.0981 v -9.88008 -9.88008 l 5.038136,-0.09809 5.038135,-0.0981 V 89.988115 80.08862 L 35.032771,79.99644 19.918363,79.90425 v 10.080067 10.080073 h -4.949747 -4.949747 v 9.89949 9.8995 h 4.949747 4.949747 v 10.07627 10.07627 h -4.949747 -4.949747 v 9.89949 9.8995 h 4.949747 4.949747 v 10.07627 10.07627 h -4.949747 -4.949747 v 9.8995 9.89949 h 4.949747 4.949747 v 20.15255 20.15254 h -4.949747 -4.949747 v 9.89949 9.8995 h 4.949747 4.949747 v 10.07627 10.07627 h -4.949747 -4.949747 v 9.8995 9.89949 h 4.949747 4.949747 v 10.07627 10.07628 H 35.12666 50.334964 Z"
       id="path4673"
       inkscape:connector-curvature="0"
       transform="scale(0.26458334)" />
    <path
       style="fill:#7c7c7c;fill-opacity:1;stroke-width:0.35355338"
       d="M 0.1193696,216.91378 V 54.102446 H 45.02065 89.921931 V 216.91378 379.72512 H 45.02065 0.1193696 Z m 50.1216984,93.07293 -0.09389,-9.98788 -5.038135,-0.0981 -5.038136,-0.0981 v -9.88979 -9.88979 h 5.132029 5.132032 l -0.0939,-9.98788 -0.09389,-9.98788 -5.038135,-0.0981 -5.038136,-0.0981 v -9.88009 -9.88008 l 5.038136,-0.0981 5.038135,-0.0981 v -19.97576 -19.97577 l -5.038135,-0.0981 -5.038136,-0.0981 v -9.70331 -9.7033 l 5.038136,-0.0981 5.038135,-0.0981 v -10.07627 -10.07627 l -5.038135,-0.0981 -5.038136,-0.0981 v -9.88979 -9.88979 h 5.132029 5.132032 l -0.0939,-9.98788 -0.09389,-9.98789 -5.038135,-0.0981 -5.038136,-0.0981 v -9.88008 -9.88008 l 5.038136,-0.09809 5.038135,-0.0981 V 89.988115 80.08862 L 35.032771,79.99644 19.918363,79.90425 v 10.080067 10.080073 h -4.949747 -4.949747 v 9.89949 9.8995 h 4.949747 4.949747 v 10.07627 10.07627 h -4.949747 -4.949747 v 9.89949 9.8995 h 4.949747 4.949747 v 10.07627 10.07627 h -4.949747 -4.949747 v 9.8995 9.89949 h 4.949747 4.949747 v 20.15255 20.15254 h -4.949747 -4.949747 v 9.89949 9.8995 h 4.949747 4.949747 v 10.07627 10.07627 h -4.949747 -4.949747 v 9.8995 9.89949 h 4.949747 4.949747 v 10.07627 10.07628 H 35.12666 50.334964 Z"
       id="path4675"
       inkscape:connector-curvature="0"
       transform="scale(0.26458334)" />
    <path
       style="fill:#7c7c7c;fill-opacity:1;stroke-width:0.35355338"
       d="M 0.1193696,216.91378 V 54.102446 H 45.02065 89.921931 V 216.91378 379.72512 H 45.02065 0.1193696 Z m 50.1216984,93.07293 -0.09389,-9.98788 -5.038135,-0.0981 -5.038136,-0.0981 v -9.88979 -9.88979 h 5.132029 5.132032 l -0.0939,-9.98788 -0.09389,-9.98788 -5.038135,-0.0981 -5.038136,-0.0981 v -9.88009 -9.88008 l 5.038136,-0.0981 5.038135,-0.0981 v -19.97576 -19.97577 l -5.038135,-0.0981 -5.038136,-0.0981 v -9.70331 -9.7033 l 5.038136,-0.0981 5.038135,-0.0981 v -10.07627 -10.07627 l -5.038135,-0.0981 -5.038136,-0.0981 v -9.88979 -9.88979 h 5.132029 5.132032 l -0.0939,-9.98788 -0.09389,-9.98789 -5.038135,-0.0981 -5.038136,-0.0981 v -9.88008 -9.88008 l 5.038136,-0.09809 5.038135,-0.0981 V 89.988115 80.08862 L 35.032771,79.99644 19.918363,79.90425 v 10.080067 10.080073 h -4.949747 -4.949747 v 9.89949 9.8995 h 4.949747 4.949747 v 10.07627 10.07627 h -4.949747 -4.949747 v 9.89949 9.8995 h 4.949747 4.949747 v 10.07627 10.07627 h -4.949747 -4.949747 v 9.8995 9.89949 h 4.949747 4.949747 v 20.15255 20.15254 h -4.949747 -4.949747 v 9.89949 9.8995 h 4.949747 4.949747 v 10.07627 10.07627 h -4.949747 -4.949747 v 9.8995 9.89949 h 4.949747 4.949747 v 10.07627 10.07628 H 35.12666 50.334964 Z"
       id="path4677"
       inkscape:connector-curvature="0"
       transform="scale(0.26458334)" />
    <rect
       style="fill:#9ca5c2;fill-opacity:1;stroke-width:0.30556914"
       id="rect4689"
       width="31.761351"
       height="100.54167"
       x="-0.011348541"
       y="-6.2806193e-006" />
    <g
       aria-label="M"
       style="font-style:normal;font-variant:normal;font-weight:bold;font-stretch:normal;font-size:19.75555611px;line-height:1.25;font-family:Arial;-inkscape-font-specification:'Arial, Bold';font-variant-ligatures:normal;font-variant-caps:normal;font-variant-numeric:normal;font-feature-settings:normal;text-align:start;letter-spacing:0px;word-spacing:0px;writing-mode:lr-tb;text-anchor:start;fill:#000000;fill-opacity:1;stroke:none;stroke-width:0.26458335"
       id="text4720" />
    <g
       id="g4799"
       transform="matrix(0.25,0,0,0.25,10.715625,74.612506)"
       style="fill:#000000;fill-opacity:1">
      <rect
         ry="0.52916306"
         y="83.608337"
         x="15.345834"
         height="14.816664"
         width="1.5874993"
         id="rect4736"
         style="fill:#000000;fill-opacity:1;stroke-width:0.22136623" />
      <rect
         ry="0.45475155"
         y="96.605995"
         x="15.345834"
         height="1.8190105"
         width="10.583333"
         id="rect4738"
         style="fill:#000000;fill-opacity:1;stroke-width:0.27422616" />
      <rect
         ry="0.52916306"
         y="83.608337"
         x="24.341667"
         height="11.641667"
         width="1.5874995"
         id="rect4759"
         style="fill:#000000;fill-opacity:1;stroke-width:0.22913586" />
      <rect
         rx="0.90335584"
         transform="matrix(1,0,0.54885411,0.83591816,0,0)"
         ry="0.3740643"
         y="100.01976"
         x="-39.523911"
         height="8.2294703"
         width="1.8067117"
         id="rect4759-7"
         style="fill:#000000;fill-opacity:1;stroke-width:0.20552233" />
      <rect
         rx="0.92604923"
         transform="matrix(1,0,0.55837942,-0.82958569,0,0)"
         ry="0.47381043"
         y="-109.07553"
         x="80.484703"
         height="8.2922926"
         width="1.8520985"
         id="rect4759-7-3"
         style="fill:#000000;fill-opacity:1;stroke-width:0.20888054" />
    </g>
    <text
       xml:space="preserve"
       style="font-style:normal;font-variant:normal;font-weight:normal;font-stretch:normal;font-size:2.82222247px;line-height:1.25;font-family:Arial;-inkscape-font-specification:'Arial, Normal';font-variant-ligatures:normal;font-variant-caps:normal;font-variant-numeric:normal;font-feature-settings:normal;text-align:start;letter-spacing:0px;word-spacing:0px;writing-mode:lr-tb;text-anchor:start;fill:#000000;fill-opacity:1;stroke:none;stroke-width:0.26458335"
       x="19.050001"
       y="20.637499"
       id="text989"><tspan
         sodipodi:role="line"
         id="tspan987"
         x="19.050001"
         y="23.179628"
         style="stroke-width:0.26458335" /></text>
  </g>
  <g
     inkscape:label="Layer 1"
     inkscape:groupmode="layer"
     id="layer1"
     transform="translate(0,-196.45832)">
    <g
       aria-label="Volt Meter"
       style="font-style:normal;font-variant:normal;font-weight:bold;font-stretch:normal;font-size:3.52777791px;line-height:1.25;font-family:Arial;-inkscape-font-specification:'Arial, Bold';font-variant-ligatures:normal;font-variant-caps:normal;font-variant-numeric:normal;font-feature-settings:normal;text-align:center;letter-spacing:0px;word-spacing:0px;writing-mode:lr-tb;text-anchor:middle;fill:#000000;fill-opacity:1;stroke:none;stroke-width:0.26458335"
       id="text914">
      <path
         d="m 8.3733043,204.39581 -0.9026151,-2.52525 h 0.5529379 l 0.6390652,1.86896 0.6183947,-1.86896 h 0.54088 l -0.9043376,2.52525 z"
         style=""
         id="path900" />
      <path
         d="m 9.7082788,203.4553 q 0,-0.24115 0.1188558,-0.46681 0.1188558,-0.22565 0.3358964,-0.34451 0.218764,-0.11885 0.487481,-0.11885 0.415134,0 0.680407,0.27044 0.265272,0.26871 0.265272,0.6804 0,0.41514 -0.268717,0.68902 -0.266995,0.27216 -0.673516,0.27216 -0.251492,0 -0.480591,-0.11368 -0.2273766,-0.11369 -0.3462324,-0.33246 -0.1188558,-0.22048 -0.1188558,-0.53571 z m 0.4960942,0.0258 q 0,0.27216 0.129191,0.41686 0.129191,0.14469 0.318671,0.14469 0.18948,0 0.316949,-0.14469 0.129191,-0.1447 0.129191,-0.4203 0,-0.26872 -0.129191,-0.41342 -0.127469,-0.14469 -0.316949,-0.14469 -0.18948,0 -0.318671,0.14469 -0.129191,0.1447 -0.129191,0.41686 z"
         style=""
         id="path902" />
      <path
         d="m 11.976874,204.39581 v -2.52525 h 0.484036 v 2.52525 z"
         style=""
         id="path904" />
      <path
         d="m 13.794162,202.56647 v 0.38585 h -0.330729 v 0.73725 q 0,0.22393 0.0086,0.26183 0.01033,0.0362 0.04306,0.0603 0.03445,0.0241 0.08268,0.0241 0.06718,0 0.194648,-0.0465 l 0.04134,0.37552 q -0.16881,0.0723 -0.382406,0.0723 -0.130913,0 -0.235989,-0.0431 -0.105075,-0.0448 -0.155029,-0.11369 -0.04823,-0.0706 -0.06718,-0.18948 -0.0155,-0.0844 -0.0155,-0.34106 v -0.79754 h -0.222209 v -0.38585 h 0.222209 v -0.36346 l 0.485758,-0.2825 v 0.64596 z"
         style=""
         id="path906" />
      <path
         d="m 15.108466,204.39581 v -2.52525 h 0.763089 l 0.458197,1.72255 0.453031,-1.72255 h 0.764811 v 2.52525 h -0.473701 v -1.98782 l -0.501261,1.98782 h -0.490926 l -0.499539,-1.98782 v 1.98782 z"
         style=""
         id="path908" />
      <path
         d="m 19.11339,203.81359 0.482313,0.081 q -0.09302,0.26527 -0.294555,0.4048 -0.199816,0.1378 -0.501262,0.1378 -0.477145,0 -0.706244,-0.31178 -0.180868,-0.24977 -0.180868,-0.63045 0,-0.45475 0.237712,-0.71141 0.237711,-0.25838 0.601169,-0.25838 0.408244,0 0.644233,0.27044 0.235989,0.26871 0.225654,0.8251 h -1.212674 q 0.0052,0.21531 0.117133,0.33589 0.111966,0.11886 0.279053,0.11886 0.113688,0 0.191203,-0.062 0.07751,-0.062 0.117133,-0.19982 z m 0.02756,-0.4892 q -0.0052,-0.21015 -0.108521,-0.31867 -0.103353,-0.11025 -0.251492,-0.11025 -0.158474,0 -0.261827,0.11541 -0.103353,0.11542 -0.10163,0.31351 z"
         style=""
         id="path910" />
      <path
         d="m 20.856608,202.56647 v 0.38585 h -0.330729 v 0.73725 q 0,0.22393 0.0086,0.26183 0.01034,0.0362 0.04306,0.0603 0.03445,0.0241 0.08268,0.0241 0.06718,0 0.194647,-0.0465 l 0.04134,0.37552 q -0.16881,0.0723 -0.382406,0.0723 -0.130914,0 -0.235989,-0.0431 -0.105075,-0.0448 -0.155029,-0.11369 -0.04823,-0.0706 -0.06718,-0.18948 -0.0155,-0.0844 -0.0155,-0.34106 v -0.79754 h -0.222208 v -0.38585 h 0.222208 v -0.36346 l 0.485759,-0.2825 v 0.64596 z"
         style=""
         id="path912" />
      <path
         d="m 22.255317,203.81359 0.482313,0.081 q -0.09302,0.26527 -0.294556,0.4048 -0.199815,0.1378 -0.501261,0.1378 -0.477146,0 -0.706245,-0.31178 -0.180867,-0.24977 -0.180867,-0.63045 0,-0.45475 0.237712,-0.71141 0.237711,-0.25838 0.601169,-0.25838 0.408244,0 0.644233,0.27044 0.235989,0.26871 0.225653,0.8251 h -1.212673 q 0.0052,0.21531 0.117133,0.33589 0.111966,0.11886 0.279053,0.11886 0.113688,0 0.191203,-0.062 0.07751,-0.062 0.117133,-0.19982 z m 0.02756,-0.4892 q -0.0052,-0.21015 -0.108521,-0.31867 -0.103353,-0.11025 -0.251492,-0.11025 -0.158474,0 -0.261827,0.11541 -0.103353,0.11542 -0.101631,0.31351 z"
         style=""
         id="path914" />
      <path
         d="m 23.62302,204.39581 h -0.484036 v -1.82934 h 0.449585 v 0.2601 q 0.115411,-0.18431 0.206706,-0.24288 0.09302,-0.0586 0.210151,-0.0586 0.165365,0 0.318671,0.0913 l -0.149861,0.42203 q -0.122301,-0.0792 -0.227377,-0.0792 -0.10163,0 -0.172254,0.0568 -0.07062,0.0551 -0.111966,0.20154 -0.03962,0.14642 -0.03962,0.61323 z"
         style=""
         id="path916" />
    </g>
    <rect
       style="fill:#ffffff;fill-opacity:1;stroke:none;stroke-width:0.26458335;stroke-opacity:1"
       id="rect842"
       width="6.2674704"
       height="0"
       x="-7.9512682"
       y="252.09871"
       ry="0" />
  </g>
</svg>
